<svg width="384" height="121" fill="none" xmlns="http://www.w3.org/2000/svg"><path fill-rule="evenodd" clip-rule="evenodd" d="M4.335 32.276C1.872 39.078.641 46.883.641 55.69v8.697c0 8.919 1.231 16.835 3.694 23.747 2.463 6.801 5.878 12.599 10.244 17.393 4.478 4.794 9.852 8.418 16.121 10.87 6.382 2.453 13.435 3.679 21.16 3.679 6.829 0 12.986-1.003 18.472-3.01 5.486-2.118 10.244-4.961 14.274-8.529 4.143-3.679 7.445-7.971 9.908-12.877 2.432-4.738 4.114-9.873 5.049-15.406.055-.326.107-.654.157-.983H77.553c-1.567 6.69-4.534 12.04-8.9 16.054-4.367 4.014-9.964 6.021-16.793 6.021-4.367 0-8.397-.78-12.091-2.341a26.514 26.514 0 01-9.572-6.857c-2.575-3.122-4.647-6.968-6.214-11.54-1.455-4.682-2.183-10.09-2.183-16.221V55.69c0-12.376 2.743-21.63 8.229-27.762 5.597-6.132 12.874-9.198 21.83-9.198 3.471 0 6.606.502 9.405 1.505 2.799 1.004 5.262 2.342 7.389 4.014a23.108 23.108 0 015.374 6.02 33.023 33.023 0 013.526 7.192H99.72a43.414 43.414 0 00-5.206-14.382c-2.463-4.572-5.71-8.53-9.74-11.874-4.03-3.456-8.844-6.188-14.442-8.195C64.846 1.003 58.69 0 51.86 0c-7.613 0-14.61 1.282-20.992 3.846-6.27 2.453-11.643 6.077-16.121 10.87-4.478 4.795-7.949 10.648-10.412 17.56zm94.195 4.201a42.424 42.424 0 00-4.872-12.908l-.007-.013-.007-.012c-2.403-4.46-5.568-8.319-9.502-11.584l-.006-.005-.006-.005c-3.93-3.369-8.635-6.043-14.132-8.014l-.007-.002c-5.36-1.961-11.4-2.95-18.131-2.95-7.5 0-14.37 1.262-20.622 3.775l-.009.003c-6.135 2.4-11.384 5.941-15.759 10.625-4.376 4.684-7.78 10.418-10.204 17.218l-.002.005c-2.417 6.674-3.636 14.361-3.636 23.08v8.696c0 8.83 1.22 16.63 3.637 23.416 2.424 6.69 5.774 12.371 10.041 17.058 4.373 4.68 9.62 8.219 15.751 10.619 6.254 2.404 13.184 3.613 20.803 3.613 6.729 0 12.766-.988 18.124-2.948 5.382-2.078 10.033-4.861 13.965-8.343 4.05-3.596 7.275-7.789 9.682-12.582l.004-.008c2.359-4.596 4.002-9.58 4.926-14.957H78.33c-1.65 6.5-4.642 11.78-9.007 15.793-4.576 4.207-10.426 6.282-17.463 6.282-4.487 0-8.65-.803-12.477-2.42a27.505 27.505 0 01-9.925-7.109l-.013-.014-.012-.015c-2.663-3.228-4.787-7.184-6.385-11.845l-.004-.014-.005-.014c-1.49-4.796-2.227-10.305-2.227-16.512V55.69c0-12.499 2.767-22.032 8.479-28.416l.007-.007c5.8-6.354 13.35-9.52 22.562-9.52 3.566 0 6.816.515 9.738 1.563 2.89 1.036 5.448 2.423 7.667 4.167a24.091 24.091 0 015.596 6.266 33.906 33.906 0 013.387 6.734H98.53zm20.825 37.776c-3.023 2.341-5.262 5.295-6.717 8.863-1.344 3.456-2.016 7.359-2.016 11.707 0 7.916 2.351 14.104 7.053 18.563 4.703 4.459 11.588 6.689 20.656 6.689 5.934 0 11.195-1.114 15.786-3.344 4.279-2.03 7.816-4.89 10.612-8.582.276-.364.545-.737.807-1.118l2.015 11.539h15.282V61.71c0-8.585-2.799-15.441-8.397-20.57-5.597-5.129-13.993-7.693-25.189-7.693-11.756 0-20.488 2.453-26.198 7.358-5.35 4.583-8.348 10.387-8.993 17.413a28.55 28.55 0 00-.075.983h21.159c.448-2.898 1.736-5.24 3.863-7.023 2.127-1.784 5.542-2.676 10.244-2.676 5.038 0 8.62 1.059 10.747 3.177 2.24 2.007 3.359 5.017 3.359 9.031v5.017h-14.106c-7.054 0-13.043.669-17.969 2.007-4.814 1.226-8.789 3.066-11.923 5.519zm41.32-22.288c2.497 2.25 3.666 5.562 3.666 9.745v6h-15.094c-6.996 0-12.893.665-17.709 1.973l-.007.002-.008.002c-4.713 1.2-8.554 2.989-11.558 5.34l-.004.002c-2.882 2.233-5.014 5.044-6.405 8.45-1.291 3.323-1.946 7.1-1.946 11.344 0 7.711 2.283 13.617 6.747 17.851 4.456 4.226 11.058 6.418 19.974 6.418 5.808 0 10.918-1.091 15.353-3.246l.008-.004c4.547-2.155 8.218-5.275 11.029-9.367l1.372-1.997 2.289 13.108h13.463V61.71c0-8.35-2.712-14.93-8.077-19.846-5.346-4.897-13.459-7.433-24.521-7.433-11.645 0-20.099 2.434-25.553 7.12h-.001c-5.128 4.393-8.005 9.93-8.645 16.667h19.269c.59-2.744 1.939-5.023 4.05-6.793 2.392-2.006 6.093-2.907 10.88-2.907 5.12 0 9.021 1.066 11.428 3.447zm-10.05 51.462l-.01.004c-2.705 1.054-5.683 1.573-8.925 1.573-3.536 0-6.436-.942-8.57-2.943l-.011-.01-.01-.011c-2.012-2.003-2.977-4.67-2.977-7.886 0-4.054 1.452-7.352 4.386-9.787 2.968-2.462 7.974-3.573 14.739-3.573h15.094v3.493c0 2.817-.591 5.47-1.775 7.948-1.17 2.446-2.748 4.656-4.728 6.628l-.01.01-.011.01c-1.999 1.875-4.399 3.386-7.182 4.541l-.01.003zm-1.378-21.649c-6.718 0-11.42 1.115-14.107 3.345-2.687 2.23-4.03 5.24-4.03 9.03 0 3.011.896 5.408 2.687 7.192 1.903 1.783 4.534 2.676 7.893 2.676 3.135 0 5.99-.502 8.564-1.505 2.687-1.115 4.982-2.565 6.885-4.349 1.904-1.895 3.415-4.013 4.535-6.355 1.119-2.34 1.679-4.85 1.679-7.525v-2.509h-14.106zm69.78-46.826h-15.282v83.618h19.48V70.072c0-5.686 1.792-10.202 5.374-13.546 3.695-3.345 9.404-5.017 17.129-5.017h8.397V33.447h-8.397c-5.261 0-10.076.948-14.442 2.843-3.853 1.616-7.155 3.963-9.906 7.042-.286.32-.567.649-.842.986l-1.511-9.366zm34.11-.521h-7.409c-5.14 0-9.818.925-14.047 2.761l-.011.005c-4.105 1.721-7.556 4.298-10.364 7.74l-1.392 1.707-1.729-10.708h-13.452v81.65h17.505V70.072c0-5.91 1.871-10.703 5.686-14.264l.005-.005.006-.005c3.954-3.58 9.953-5.273 17.793-5.273h7.409V34.43zm22.155 76.42c4.577 4.446 11.124 6.735 19.789 6.735h6.737v-15.09h-3.21c-4.076 0-7.295-1.045-9.451-3.318-2.153-2.27-3.124-5.748-3.124-10.209V2.49h-17.505v88.487c0 8.745 2.301 15.319 6.764 19.875zm-.698.695c-4.702-4.794-7.054-11.65-7.054-20.57V1.506h19.481v87.463c0 4.349.951 7.526 2.854 9.533 1.903 2.007 4.814 3.01 8.733 3.01h4.198v17.058h-7.725c-8.845 0-15.674-2.341-20.487-7.024zm45.327-37.293c-3.023 2.341-5.261 5.295-6.717 8.863-1.343 3.456-2.015 7.359-2.015 11.707 0 7.916 2.351 14.104 7.053 18.563s11.587 6.689 20.655 6.689c5.934 0 11.197-1.114 15.786-3.344 4.279-2.03 7.817-4.89 10.612-8.582.277-.364.546-.737.807-1.118l2.016 11.539h15.281V61.71c0-8.585-2.798-15.441-8.396-20.57-5.597-5.129-13.994-7.693-25.19-7.693-11.755 0-20.488 2.453-26.197 7.358-5.35 4.583-8.347 10.387-8.994 17.413-.03.325-.055.653-.075.983h21.16c.448-2.898 1.735-5.24 3.862-7.023 2.128-1.784 5.542-2.676 10.244-2.676 5.038 0 8.621 1.059 10.748 3.177 2.239 2.007 3.358 5.017 3.358 9.031v5.017h-14.106c-7.053 0-13.042.669-17.969 2.007-4.813 1.226-8.787 3.066-11.923 5.519zm41.32-22.288c2.497 2.25 3.666 5.562 3.666 9.745v6h-15.094c-6.996 0-12.892.665-17.709 1.973l-.007.002-.008.002c-4.713 1.2-8.553 2.989-11.557 5.34l-.004.002c-2.883 2.233-5.014 5.044-6.405 8.45-1.291 3.323-1.946 7.1-1.946 11.344 0 7.711 2.283 13.617 6.747 17.851 4.456 4.226 11.057 6.418 19.973 6.418 5.809 0 10.918-1.091 15.353-3.246l.008-.004c4.547-2.155 8.218-5.275 11.029-9.367l1.373-1.997 2.288 13.108h13.463V61.71c0-8.35-2.71-14.93-8.077-19.846-5.345-4.897-13.458-7.433-24.521-7.433-11.645 0-20.098 2.434-25.552 7.12h-.001c-5.129 4.393-8.006 9.93-8.646 16.667h19.27c.59-2.744 1.938-5.023 4.049-6.793 2.393-2.006 6.093-2.907 10.88-2.907 5.12 0 9.023 1.066 11.428 3.447zm-10.05 51.462l-.01.004c-2.705 1.054-5.683 1.573-8.925 1.573-3.535 0-6.436-.942-8.569-2.943l-.011-.01-.011-.011c-2.011-2.003-2.976-4.67-2.976-7.886 0-4.054 1.452-7.352 4.386-9.787 2.967-2.462 7.973-3.573 14.738-3.573h15.094v3.493c0 2.817-.591 5.47-1.775 7.948-1.17 2.446-2.747 4.656-4.728 6.628l-.01.01-.011.01c-1.999 1.875-4.398 3.386-7.182 4.541l-.01.003zm6.515-5.26c-1.903 1.784-4.198 3.234-6.885 4.349-2.575 1.003-5.43 1.505-8.565 1.505-3.359 0-5.989-.893-7.893-2.676-1.791-1.784-2.687-4.181-2.687-7.191 0-3.79 1.344-6.801 4.031-9.031 2.687-2.23 7.389-3.345 14.106-3.345h14.106v2.509c0 2.676-.559 5.184-1.679 7.525-1.119 2.342-2.631 4.46-4.534 6.355z" fill="#FFBCBC"/></svg>