<svg width="893" height="121" fill="none" xmlns="http://www.w3.org/2000/svg"><path d="M51.745 120.538c-7.708 0-14.745-1.227-21.112-3.679-6.256-2.453-11.618-6.077-16.086-10.871-4.357-4.794-7.764-10.591-10.222-17.392C1.869 81.683.64 73.767.64 64.848v-8.696c0-8.808 1.229-16.612 3.686-23.413 2.458-6.912 5.921-12.766 10.39-17.56 4.468-4.794 9.83-8.417 16.085-10.87C37.167 1.745 44.15.462 51.745.462c6.814 0 12.958 1.004 18.432 3.01 5.585 2.007 10.389 4.739 14.41 8.195a39.866 39.866 0 019.718 11.874A43.546 43.546 0 0199.5 37.923H77.382a33.045 33.045 0 00-3.519-7.19 23.09 23.09 0 00-5.362-6.021c-2.122-1.673-4.58-3.01-7.373-4.014-2.792-1.003-5.92-1.505-9.383-1.505-8.936 0-16.197 3.066-21.783 9.198-5.473 6.132-8.21 15.386-8.21 27.76v8.697c0 6.132.726 11.54 2.178 16.222 1.564 4.571 3.63 8.418 6.2 11.54a26.456 26.456 0 009.55 6.856c3.687 1.561 7.709 2.341 12.065 2.341 6.814 0 12.4-2.007 16.756-6.02 4.357-4.014 7.317-9.365 8.88-16.055H99.5c-.892 5.91-2.624 11.372-5.194 16.39-2.457 4.905-5.752 9.197-9.886 12.876-4.021 3.568-8.769 6.411-14.242 8.529-5.474 2.007-11.618 3.011-18.432 3.011zm86.281 0c-9.049 0-15.919-2.23-20.61-6.69-4.692-4.459-7.038-10.647-7.038-18.563 0-4.348.67-8.25 2.011-11.706 1.452-3.568 3.686-6.522 6.702-8.864 3.128-2.453 7.094-4.292 11.897-5.519 4.916-1.337 10.892-2.006 17.929-2.006h14.075v-5.017c0-4.014-1.117-7.024-3.351-9.031-2.122-2.119-5.697-3.178-10.724-3.178-4.692 0-8.099.892-10.221 2.676-2.122 1.784-3.407 4.125-3.854 7.024h-21.113c.447-7.47 3.463-13.602 9.049-18.396 5.697-4.906 14.41-7.358 26.139-7.358 11.171 0 19.549 2.564 25.134 7.693 5.586 5.128 8.378 11.985 8.378 20.57v56.86h-15.248l-2.01-11.54c-2.905 4.237-6.703 7.47-11.395 9.7-4.579 2.23-9.83 3.345-15.75 3.345zm3.351-16.055c3.128 0 5.976-.502 8.545-1.505 2.681-1.115 4.971-2.565 6.87-4.348 1.9-1.895 3.408-4.014 4.525-6.355 1.116-2.341 1.675-4.85 1.675-7.526v-2.508h-14.075c-6.702 0-11.394 1.115-14.075 3.344-2.681 2.23-4.021 5.24-4.021 9.031 0 3.01.894 5.408 2.681 7.191 1.899 1.784 4.524 2.676 7.875 2.676zm61.919-69.068h15.248l1.508 9.365c2.904-3.568 6.479-6.244 10.723-8.027 4.357-1.896 9.161-2.843 14.411-2.843h8.378v18.06h-8.378c-7.708 0-13.405 1.673-17.091 5.017-3.574 3.345-5.362 7.86-5.362 13.546v48.499h-19.437V35.415zm91.134 83.617c-8.826 0-15.64-2.341-20.443-7.024-4.691-4.793-7.037-11.65-7.037-20.57V1.969h19.437v87.464c0 4.348.949 7.525 2.848 9.532 1.899 2.007 4.803 3.01 8.714 3.01h4.189v17.058h-7.708zm43.719 1.506c-9.048 0-15.918-2.23-20.61-6.69-4.691-4.459-7.037-10.647-7.037-18.563 0-4.348.67-8.25 2.011-11.706 1.452-3.568 3.686-6.522 6.702-8.864 3.128-2.453 7.094-4.292 11.897-5.519 4.915-1.337 10.891-2.006 17.929-2.006h14.075v-5.017c0-4.014-1.117-7.024-3.351-9.031-2.122-2.119-5.697-3.178-10.724-3.178-4.692 0-8.098.892-10.221 2.676-2.123 1.784-3.407 4.125-3.854 7.024h-21.113c.448-7.47 3.464-13.602 9.048-18.396 5.697-4.906 14.411-7.358 26.14-7.358 11.171 0 19.549 2.564 25.134 7.693 5.586 5.128 8.378 11.985 8.378 20.57v56.86h-15.248l-2.011-11.54c-2.904 4.237-6.702 7.47-11.394 9.7-4.579 2.23-9.83 3.345-15.751 3.345zm3.352-16.055c3.128 0 5.977-.502 8.545-1.505 2.681-1.115 4.972-2.565 6.87-4.348 1.899-1.895 3.408-4.014 4.524-6.355 1.118-2.341 1.676-4.85 1.676-7.526v-2.508h-14.075c-6.703 0-11.394 1.115-14.075 3.344-2.681 2.23-4.022 5.24-4.022 9.031 0 3.01.894 5.408 2.681 7.191 1.9 1.784 4.524 2.676 7.876 2.676zm109.674 16.055c-7.708 0-14.745-1.227-21.113-3.679-6.256-2.453-11.618-6.077-16.086-10.871-4.356-4.794-7.763-10.591-10.221-17.392-2.458-6.913-3.686-14.829-3.686-23.748v-8.696c0-8.808 1.228-16.612 3.686-23.413 2.458-6.912 5.92-12.766 10.389-17.56 4.468-4.794 9.83-8.417 16.086-10.87 6.367-2.564 13.349-3.847 20.945-3.847 6.814 0 12.957 1.004 18.432 3.01 5.584 2.007 10.388 4.739 14.41 8.195a39.88 39.88 0 019.718 11.874 43.577 43.577 0 015.195 14.382h-22.118a33.077 33.077 0 00-3.519-7.19 23.116 23.116 0 00-5.362-6.021c-2.123-1.673-4.58-3.01-7.373-4.014-2.793-1.003-5.92-1.505-9.383-1.505-8.937 0-16.198 3.066-21.783 9.198-5.474 6.132-8.21 15.386-8.21 27.76v8.697c0 6.132.725 11.54 2.178 16.222 1.563 4.571 3.63 8.418 6.2 11.54a26.451 26.451 0 009.551 6.856c3.686 1.561 7.707 2.341 12.064 2.341 6.814 0 12.399-2.007 16.756-6.02 4.357-4.014 7.317-9.365 8.881-16.055h22.118c-.894 5.91-2.626 11.372-5.195 16.39-2.458 4.905-5.753 9.197-9.886 12.876-4.021 3.568-8.769 6.411-14.242 8.529-5.475 2.007-11.618 3.011-18.432 3.011zm99.685 0c-12.622 0-22.509-3.568-29.659-10.703-7.037-7.135-10.556-17.114-10.556-29.935v-5.352c0-6.355.894-12.041 2.681-17.058 1.899-5.017 4.58-9.254 8.043-12.71 3.575-3.568 7.82-6.244 12.735-8.027 4.915-1.896 10.501-2.843 16.756-2.843 12.623 0 22.453 3.567 29.49 10.703 7.15 7.135 10.724 17.114 10.724 29.935V79.9c0 6.354-.949 12.04-2.848 17.058-1.787 5.017-4.468 9.309-8.043 12.877-3.463 3.456-7.708 6.131-12.735 8.027-4.914 1.784-10.444 2.676-16.588 2.676zm0-18.062c6.367 0 11.226-1.839 14.578-5.518 3.463-3.68 5.194-9.366 5.194-17.058v-5.352c0-7.581-1.787-13.212-5.362-16.89-3.463-3.792-8.266-5.687-14.41-5.687-6.368 0-11.282 1.84-14.746 5.519-3.351 3.68-5.026 9.365-5.026 17.058V79.9c0 7.58 1.731 13.267 5.194 17.058 3.575 3.679 8.434 5.518 14.578 5.518zm84.418 16.556c-8.825 0-15.639-2.341-20.443-7.024-4.691-4.793-7.037-11.65-7.037-20.57V1.969h19.437v87.464c0 4.348.949 7.525 2.848 9.532 1.9 2.007 4.804 3.01 8.714 3.01h4.189v17.058h-7.708zm55.489 1.506c-12.623 0-22.509-3.568-29.658-10.703-7.038-7.135-10.557-17.114-10.557-29.935v-5.352c0-6.355.893-12.041 2.681-17.058 1.899-5.017 4.58-9.254 8.043-12.71 3.574-3.568 7.82-6.244 12.735-8.027 4.914-1.896 10.5-2.843 16.756-2.843 12.622 0 22.453 3.567 29.491 10.703 7.149 7.135 10.724 17.114 10.724 29.935V79.9c0 6.354-.951 12.04-2.849 17.058-1.788 5.017-4.469 9.309-8.043 12.877-3.463 3.456-7.708 6.131-12.734 8.027-4.916 1.784-10.445 2.676-16.589 2.676zm0-18.062c6.367 0 11.227-1.839 14.578-5.518 3.462-3.68 5.194-9.366 5.194-17.058v-5.352c0-7.581-1.788-13.212-5.362-16.89-3.463-3.792-8.266-5.687-14.41-5.687-6.367 0-11.283 1.84-14.745 5.519-3.352 3.68-5.027 9.365-5.027 17.058V79.9c0 7.58 1.731 13.267 5.194 17.058 3.574 3.679 8.433 5.518 14.578 5.518zm87.936 18.062c-9.83 0-17.594-3.011-23.291-9.031-5.697-6.132-8.546-15.33-8.546-27.594V35.415h19.437v48.498c0 6.132 1.453 10.759 4.357 13.88 2.905 3.122 6.703 4.683 11.394 4.683 5.697 0 10.221-1.616 13.573-4.85 3.463-3.233 5.306-7.525 5.529-12.877V35.415h19.437v83.617h-15.248l-1.508-9.198c-3.016 3.456-6.646 6.132-10.891 8.028-4.245 1.783-8.992 2.676-14.243 2.676zm63.745-85.123h15.248l1.508 9.365a27.223 27.223 0 0110.724-8.027c4.356-1.896 9.161-2.843 14.41-2.843h8.378v18.06h-8.378c-7.708 0-13.405 1.673-17.091 5.017-3.574 3.345-5.362 7.86-5.362 13.546v48.499h-19.437V35.415z" fill="#FFBCBC"/></svg>