<svg width="494" height="121" fill="none" xmlns="http://www.w3.org/2000/svg"><path fill-rule="evenodd" clip-rule="evenodd" d="M3.779 32.276C1.316 39.078.084 46.883.084 55.69v8.697c0 8.919 1.232 16.835 3.695 23.747 2.462 6.801 5.877 12.599 10.243 17.393 4.478 4.794 9.852 8.418 16.122 10.87 6.381 2.453 13.434 3.679 21.16 3.679 6.828 0 12.986-1.003 18.472-3.01 5.485-2.118 10.243-4.961 14.274-8.529 4.142-3.679 7.445-7.971 9.908-12.877 2.43-4.738 4.114-9.873 5.049-15.406.054-.326.106-.654.157-.983H76.997c-1.568 6.69-4.534 12.04-8.9 16.054-4.367 4.014-9.965 6.021-16.794 6.021-4.366 0-8.396-.78-12.09-2.341a26.514 26.514 0 01-9.573-6.857c-2.575-3.122-4.646-6.968-6.213-11.54-1.456-4.682-2.183-10.09-2.183-16.221V55.69c0-12.376 2.743-21.63 8.228-27.762 5.598-6.132 12.874-9.198 21.831-9.198 3.47 0 6.606.502 9.404 1.505 2.799 1.004 5.262 2.342 7.39 4.014a23.108 23.108 0 015.373 6.02 33.055 33.055 0 013.527 7.192h22.167a43.44 43.44 0 00-5.206-14.382c-2.463-4.572-5.71-8.53-9.74-11.874-4.03-3.456-8.844-6.188-14.442-8.195C64.29 1.003 58.132 0 51.303 0c-7.613 0-14.61 1.282-20.991 3.846-6.27 2.453-11.644 6.077-16.122 10.87-4.477 4.795-7.949 10.648-10.411 17.56zm94.194 4.201a42.4 42.4 0 00-4.872-12.908l-.007-.013-.006-.012c-2.403-4.46-5.569-8.319-9.502-11.584l-.006-.005-.007-.005c-3.929-3.369-8.634-6.043-14.132-8.014l-.006-.002c-5.36-1.961-11.4-2.95-18.132-2.95-7.5 0-14.37 1.262-20.622 3.775l-.008.003c-6.135 2.4-11.384 5.941-15.76 10.625-4.376 4.684-7.78 10.418-10.204 17.218v.005C2.29 39.284 1.071 46.971 1.071 55.69v8.696c0 8.83 1.219 16.63 3.637 23.416 2.423 6.69 5.773 12.371 10.04 17.058 4.374 4.68 9.62 8.219 15.751 10.619 6.254 2.404 13.185 3.613 20.803 3.613 6.73 0 12.766-.988 18.124-2.948 5.382-2.078 10.033-4.861 13.966-8.343 4.049-3.596 7.274-7.789 9.682-12.582l.004-.008c2.359-4.596 4.001-9.58 4.925-14.957h-20.23c-1.65 6.5-4.643 11.78-9.008 15.793-4.576 4.207-10.425 6.282-17.463 6.282-4.486 0-8.65-.803-12.477-2.42a27.502 27.502 0 01-9.924-7.109l-.013-.014-.013-.015c-2.663-3.228-4.786-7.184-6.384-11.845l-.005-.014-.004-.014c-1.491-4.796-2.227-10.305-2.227-16.512V55.69c0-12.499 2.767-22.032 8.478-28.416l.007-.007c5.8-6.354 13.352-9.52 22.562-9.52 3.566 0 6.816.515 9.74 1.563 2.889 1.036 5.447 2.423 7.666 4.167a24.096 24.096 0 015.595 6.266 33.906 33.906 0 013.387 6.734h20.282zm36.443-.187c-4.926 1.784-9.18 4.46-12.762 8.028-3.472 3.456-6.159 7.692-8.061 12.71-1.792 5.017-2.687 10.703-2.687 17.057v5.352c0 12.821 3.527 22.8 10.58 29.935 7.164 7.135 17.072 10.703 29.724 10.703 6.157 0 11.698-.892 16.625-2.675 5.038-1.896 9.291-4.572 12.763-8.028 3.581-3.568 6.268-7.86 8.06-12.877 1.903-5.017 2.855-10.703 2.855-17.058v-5.352c0-12.82-3.583-22.8-10.748-29.935-7.053-7.135-16.905-10.703-29.555-10.703-6.27 0-11.868.948-16.794 2.843zm33.075 80.187c4.917-1.851 9.047-4.454 12.408-7.8 3.472-3.459 6.083-7.624 7.829-12.512l.003-.009.003-.009c1.854-4.887 2.791-10.452 2.791-16.71v-5.352c0-12.634-3.525-22.335-10.458-29.24l-.006-.005c-6.822-6.902-16.393-10.41-28.851-10.41-6.17 0-11.644.934-16.438 2.778l-.009.003-.01.004c-4.795 1.736-8.924 4.336-12.401 7.798-3.361 3.346-5.973 7.458-7.832 12.353-1.745 4.89-2.626 10.46-2.626 16.72v5.351c0 12.637 3.47 22.338 10.292 29.242 6.936 6.906 16.567 10.413 29.024 10.413 6.059 0 11.482-.878 16.281-2.615zm-31.059-59.45c3.47-3.679 8.396-5.518 14.778-5.518 6.157 0 10.97 1.895 14.442 5.686 3.582 3.679 5.373 9.31 5.373 16.89v5.352c0 7.693-1.735 13.379-5.205 17.058-3.359 3.679-8.229 5.519-14.61 5.519-6.159 0-11.029-1.84-14.61-5.519-3.472-3.79-5.206-9.477-5.206-17.058v-5.352c0-7.692 1.679-13.378 5.038-17.058zm30.113 40.136c-3.595 3.934-8.761 5.835-15.335 5.835-6.369 0-11.516-1.911-15.32-5.818l-.011-.011-.009-.011c-3.701-4.042-5.464-10.01-5.464-17.721v-5.352c0-7.808 1.7-13.782 5.295-17.72l.005-.005.005-.006c3.704-3.926 8.92-5.83 15.499-5.83 6.37 0 11.468 1.97 15.161 5.997 3.824 3.934 5.642 9.856 5.642 17.564v5.352c0 7.812-1.758 13.789-5.468 17.726zm49.48 13.688c4.577 4.446 11.124 6.735 19.789 6.735h6.737v-15.09h-3.21c-4.076 0-7.295-1.045-9.451-3.318-2.153-2.27-3.124-5.748-3.124-10.209V2.49h-17.505v88.487c0 8.745 2.301 15.319 6.764 19.875zm-.698.695c-4.702-4.794-7.053-11.65-7.053-20.57V1.506h19.48v87.463c0 4.349.951 7.526 2.855 9.533 1.902 2.007 4.813 3.01 8.732 3.01h4.198v17.058h-7.725c-8.845 0-15.674-2.341-20.487-7.024zM320.981 44.15c-7.053-7.135-16.904-10.703-29.556-10.703-6.269 0-11.866.948-16.793 2.843-4.926 1.784-9.18 4.46-12.763 8.028-3.47 3.456-6.157 7.692-8.06 12.71-1.791 5.017-2.687 10.703-2.687 17.057v5.352c0 12.821 3.526 22.8 10.58 29.935 7.164 7.135 17.072 10.703 29.723 10.703 6.158 0 11.699-.892 16.626-2.675 5.038-1.896 9.292-4.572 12.762-8.028 3.583-3.568 6.27-7.86 8.061-12.877 1.904-5.017 2.855-10.703 2.855-17.058v-5.352c0-12.82-3.583-22.8-10.748-29.935zm-13.274 72.327c4.917-1.851 9.047-4.454 12.408-7.8 3.473-3.459 6.083-7.624 7.829-12.512l.003-.009.003-.009c1.855-4.887 2.791-10.452 2.791-16.71v-5.352c0-12.634-3.525-22.335-10.458-29.24l-.006-.005c-6.822-6.902-16.393-10.41-28.852-10.41-6.17 0-11.643.934-16.437 2.778l-.009.003-.009.004c-4.795 1.736-8.925 4.336-12.402 7.798-3.36 3.346-5.974 7.458-7.832 12.353-1.744 4.89-2.626 10.46-2.626 16.72v5.351c0 12.637 3.471 22.339 10.293 29.243 6.935 6.905 16.567 10.412 29.022 10.412 6.06 0 11.483-.878 16.282-2.615zm-30.892-19.982c-3.47-3.79-5.206-9.477-5.206-17.058v-5.352c0-7.692 1.68-13.378 5.038-17.058 3.471-3.679 8.397-5.518 14.778-5.518 6.158 0 10.972 1.895 14.442 5.686 3.583 3.679 5.374 9.31 5.374 16.89v5.352c0 7.693-1.735 13.379-5.206 17.058-3.358 3.679-8.228 5.519-14.61 5.519-6.157 0-11.027-1.84-14.61-5.519zm-.893-40.135l.005-.006c3.704-3.926 8.919-5.83 15.498-5.83 6.371 0 11.468 1.97 15.162 5.996 3.824 3.935 5.642 9.856 5.642 17.565v5.352c0 7.812-1.758 13.79-5.469 17.726-3.594 3.934-8.761 5.835-15.335 5.835-6.368 0-11.514-1.911-15.319-5.818l-.011-.011-.01-.011c-3.7-4.042-5.463-10.01-5.463-17.721v-5.352c0-7.808 1.701-13.782 5.294-17.72l.006-.005zm128.824 53.012c-.277.317-.56.628-.847.932-2.848 3.009-6.205 5.374-10.068 7.096-4.255 1.783-9.012 2.675-14.274 2.675-9.852 0-17.633-3.01-23.343-9.03-5.709-6.132-8.564-15.33-8.564-27.594V34.952h19.48v48.499c0 6.132 1.455 10.759 4.366 13.88 2.911 3.122 6.717 4.683 11.419 4.683 5.71 0 10.244-1.616 13.603-4.85 3.47-3.233 5.317-7.526 5.542-12.877V34.952h19.48v83.618h-15.282l-1.512-9.198zm2.352 8.214l-1.716-10.438-1.38 1.578c-2.925 3.345-6.444 5.934-10.565 7.771-4.115 1.724-8.737 2.595-13.88 2.595-9.634 0-17.133-2.934-22.622-8.719-5.473-5.881-8.297-14.794-8.297-26.922V35.936h17.504v47.515c0 6.272 1.488 11.18 4.63 14.55 3.118 3.343 7.196 4.997 12.143 4.997 5.903 0 10.702-1.677 14.283-5.121 3.682-3.433 5.615-7.98 5.848-13.55l.001-.02V35.936h17.505v81.65h-13.454zm51.627-82.634h-15.282v83.618h19.48V70.072c0-5.686 1.791-10.202 5.374-13.546 3.694-3.345 9.404-5.017 17.129-5.017h8.396V33.447h-8.396c-5.263 0-10.076.948-14.442 2.843-3.854 1.616-7.155 3.963-9.906 7.042a28.8 28.8 0 00-.842.986l-1.511-9.366zm34.109-.521h-7.408c-5.141 0-9.818.925-14.047 2.761l-.012.005c-4.105 1.721-7.556 4.298-10.364 7.74l-1.392 1.707-1.728-10.708h-13.452v81.65h17.504V70.072c0-5.91 1.871-10.703 5.686-14.264l.006-.005.005-.005c3.953-3.58 9.952-5.273 17.794-5.273h7.408V34.43z" fill="#FFBCBC"/></svg>