<svg width="1440" height="680" fill="none" xmlns="http://www.w3.org/2000/svg"><path d="M0 280h1440v400H0V280z" fill="#fff"/><path fill-rule="evenodd" clip-rule="evenodd" d="M42.716 358.853l38.905 59.21h26.916l-51.104-75.417 47.027-59.667H78.448l-52.996 68.036v-68.036H3.976v135.084h21.476v-37.936l17.264-21.274zM77.971 282h28.505l-47.833 60.69 51.738 76.352H81.095l-38.462-58.536-16.204 19.969v38.567H3V282h23.429v66.172L77.97 282zm65.75 39.155h-17.767v97.887h22.648v-56.774c0-6.657 2.082-11.943 6.247-15.858 4.296-3.916 10.934-5.873 19.915-5.873h9.762v-21.144h-9.762c-6.118 0-11.715 1.109-16.791 3.328-4.549 1.921-8.437 4.724-11.664 8.411-.282.322-.559.651-.831.986l-1.757-10.963zm39.828-.783h-8.785c-5.998 0-11.46 1.087-16.4 3.246l-.012.005c-4.798 2.026-8.834 5.061-12.117 9.113l-1.375 1.697-1.971-12.299H126.93v95.929h20.696v-55.795c0-6.879 2.162-12.441 6.556-16.572l.006-.005.004-.005c4.552-4.149 11.475-6.128 20.572-6.128h8.785v-19.186zm38.29 75.177c-3.748-3.508-5.997-9.12-6.747-16.836a48.857 48.857 0 01-.086-.979h69.114v-7.635c0-16.315-4.1-28.845-12.3-37.589-8.2-8.745-19.394-13.117-33.581-13.117-7.028 0-13.341 1.109-18.938 3.328-5.597 2.088-10.413 5.221-14.447 9.397-4.036 4.046-7.16 9.006-9.372 14.879-2.083 5.873-3.123 12.53-3.123 19.969v6.265c0 7.439 1.04 14.096 3.123 19.969 2.212 5.873 5.336 10.898 9.372 15.075 4.034 4.045 8.85 7.178 14.447 9.397 5.597 2.088 11.91 3.132 18.938 3.132 6.768 0 12.755-.783 17.962-2.349 5.206-1.696 9.631-3.981 13.277-6.852 3.644-2.871 6.572-6.265 8.785-10.18 2.053-3.635 3.603-7.551 4.648-11.747.08-.325.158-.651.233-.979h-23.428c-1.042 3.263-3.19 6.135-6.443 8.614-3.124 2.35-8.136 3.524-15.034 3.524-7.028 0-12.495-1.762-16.4-5.286zm38.572-5.873c-1.184 3.204-3.388 6.006-6.548 8.414l-.005.004c-3.38 2.542-8.653 3.72-15.619 3.72-7.187 0-12.916-1.803-17.053-5.537l-.006-.006-.007-.006c-4.158-3.891-6.48-10.115-7.14-18.454l-.084-1.056h69.195v-6.656c0-16.157-4.059-28.412-12.035-36.919-7.982-8.511-18.898-12.808-32.87-12.808-6.926 0-13.114 1.093-18.579 3.259l-.009.004-.01.004c-5.465 2.039-10.156 5.092-14.086 9.16l-.006.006-.005.005c-3.926 3.937-6.977 8.772-9.146 14.524-2.036 5.748-3.063 12.287-3.063 19.632v6.265c0 7.344 1.027 13.884 3.064 19.632 2.168 5.752 5.22 10.655 9.15 14.724 3.932 3.942 8.628 6.999 14.102 9.171 5.467 2.039 11.659 3.067 18.588 3.067 6.69 0 12.577-.774 17.67-2.304 5.113-1.668 9.428-3.901 12.965-6.688 3.548-2.795 6.391-6.092 8.54-9.893 1.97-3.486 3.466-7.24 4.489-11.264h-21.492zm-46.147-28.975l.166-1.122c1.061-7.183 3.538-12.594 7.553-16.064 4.003-3.461 9.462-5.132 16.256-5.132 6.781 0 12.233 1.6 16.235 4.918 4.177 3.354 6.649 8.86 7.577 16.3l.136 1.1h-47.923zm39.594-16.64c-3.774-3.133-8.98-4.699-15.619-4.699-6.638 0-11.845 1.631-15.619 4.894-3.598 3.11-5.953 7.939-7.068 14.488-.055.322-.107.648-.155.979h45.685a62.957 62.957 0 00-.132-.979c-1-6.798-3.363-11.693-7.092-14.683zm109.903-.363l20.724 74.365h25.838l24.874-95.929h-20.226l-17.493 72.815-20.137-72.815h-25.824l-17 69.928-1.894.011-17.968-69.939H293.27l26.787 95.929h25.824l17.88-74.365zm-17.112 75.344h-27.333l-27.333-97.887h23.428l18.157 70.675 17.181-70.675h27.334l19.328 69.891 16.791-69.891h22.257l-25.381 97.887h-27.333l-19.915-71.457-17.181 71.457zm110.069-86.924c-4.035 4.046-7.159 9.006-9.372 14.879-2.082 5.873-3.124 12.53-3.124 19.969v6.265c0 7.439 1.042 14.096 3.124 19.969 2.213 5.873 5.337 10.898 9.372 15.075 4.035 4.045 8.851 7.178 14.447 9.397 5.598 2.088 11.91 3.132 18.938 3.132 6.769 0 12.756-.783 17.962-2.349 5.207-1.696 9.632-3.981 13.276-6.852 3.646-2.871 6.574-6.265 8.786-10.18 2.054-3.635 3.603-7.551 4.648-11.747.081-.325.159-.651.233-.979H511.58c-1.041 3.263-3.189 6.135-6.443 8.614-3.124 2.35-8.135 3.524-15.034 3.524-7.028 0-12.495-1.762-16.4-5.286-3.747-3.508-5.996-9.12-6.746-16.836a57.5 57.5 0 01-.087-.979h69.114v-7.635c0-16.315-4.1-28.845-12.3-37.589-8.2-8.745-19.393-13.117-33.581-13.117-7.028 0-13.34 1.109-18.938 3.328-5.596 2.088-10.412 5.221-14.447 9.397zm78.29 44.637v-6.656c0-16.157-4.058-28.412-12.034-36.919-7.982-8.511-18.898-12.808-32.871-12.808-6.926 0-13.114 1.093-18.578 3.259l-.009.004-.01.004c-5.465 2.039-10.156 5.092-14.086 9.16l-.006.006-.006.005c-3.925 3.937-6.976 8.772-9.145 14.524-2.036 5.748-3.064 12.287-3.064 19.632v6.265c0 7.344 1.028 13.884 3.064 19.632 2.168 5.752 5.221 10.655 9.151 14.725 3.932 3.941 8.628 6.998 14.101 9.17 5.468 2.039 11.66 3.067 18.588 3.067 6.691 0 12.578-.774 17.671-2.305 5.113-1.667 9.427-3.9 12.965-6.687 3.548-2.795 6.391-6.092 8.539-9.893 1.97-3.486 3.467-7.24 4.49-11.264h-21.492c-1.184 3.204-3.389 6.006-6.549 8.414l-.005.004c-3.379 2.542-8.652 3.72-15.619 3.72-7.186 0-12.915-1.803-17.053-5.537l-.006-.006-.006-.006c-4.158-3.891-6.48-10.115-7.14-18.454l-.084-1.056h69.194zm-68.879-16.054l.166-1.122c1.061-7.183 3.538-12.594 7.552-16.064 4.003-3.461 9.463-5.132 16.256-5.132 6.782 0 12.234 1.6 16.236 4.918 4.176 3.354 6.649 8.86 7.577 16.3l.136 1.1h-47.923zm39.593-16.64c-3.773-3.133-8.98-4.699-15.619-4.699-6.638 0-11.844 1.631-15.619 4.894-3.597 3.11-5.953 7.939-7.067 14.488-.055.322-.108.648-.156.979h45.685a45.502 45.502 0 00-.132-.979c-.999-6.798-3.363-11.693-7.092-14.683z" fill="#FFBCBC"/><path d="M42.633 360.506L26.43 380.475v38.567H3V282h23.429v66.172L77.97 282h28.505l-47.833 60.69 51.738 76.352H81.095l-38.462-58.536zm83.321-39.351h17.767l1.757 10.963c3.384-4.176 7.549-7.309 12.495-9.397 5.076-2.219 10.673-3.328 16.791-3.328h9.762v21.144h-9.762c-8.981 0-15.619 1.957-19.915 5.873-4.165 3.915-6.247 9.201-6.247 15.858v56.774h-22.648v-97.887zm112.285 99.649c-7.028 0-13.341-1.044-18.938-3.132-5.597-2.219-10.413-5.352-14.447-9.397-4.036-4.177-7.16-9.202-9.372-15.075-2.083-5.873-3.123-12.529-3.123-19.969v-6.265c0-7.439 1.04-14.095 3.123-19.969 2.212-5.873 5.336-10.833 9.372-14.879 4.034-4.176 8.85-7.309 14.447-9.397 5.597-2.219 11.91-3.328 18.938-3.328 14.187 0 25.381 4.372 33.581 13.117 8.2 8.745 12.3 21.274 12.3 37.589v7.635h-69.114c.65 8.222 2.929 14.161 6.833 17.815 3.905 3.524 9.372 5.286 16.4 5.286 6.898 0 11.91-1.174 15.034-3.524 3.253-2.479 5.401-5.351 6.443-8.614h23.428c-1.041 4.569-2.669 8.81-4.881 12.726-2.213 3.915-5.141 7.309-8.785 10.18-3.646 2.871-8.071 5.156-13.277 6.852-5.207 1.566-11.194 2.349-17.962 2.349zm0-81.442c-6.638 0-11.845 1.632-15.619 4.894-3.775 3.263-6.183 8.419-7.223 15.467h45.685c-.911-7.309-3.319-12.53-7.223-15.662-3.775-3.133-8.981-4.699-15.62-4.699zm125.591 8.222l-17.181 71.458h-27.333l-27.333-97.887h23.428l18.157 70.674 17.181-70.674h27.334l19.328 69.891 16.791-69.891h22.257l-25.381 97.887h-27.333l-19.915-71.458zm126.273 73.22c-7.028 0-13.34-1.044-18.938-3.132-5.596-2.219-10.412-5.352-14.447-9.397-4.035-4.177-7.159-9.202-9.372-15.075-2.082-5.873-3.124-12.529-3.124-19.969v-6.265c0-7.439 1.042-14.095 3.124-19.969 2.213-5.873 5.337-10.833 9.372-14.879 4.035-4.176 8.851-7.309 14.447-9.397 5.598-2.219 11.91-3.328 18.938-3.328 14.188 0 25.381 4.372 33.581 13.117 8.2 8.745 12.3 21.274 12.3 37.589v7.635H466.87c.651 8.222 2.929 14.161 6.833 17.815 3.905 3.524 9.372 5.286 16.4 5.286 6.899 0 11.91-1.174 15.034-3.524 3.254-2.479 5.402-5.351 6.443-8.614h23.428c-1.04 4.569-2.668 8.81-4.881 12.726-2.212 3.915-5.14 7.309-8.785 10.18-3.645 2.871-8.07 5.156-13.277 6.852-5.206 1.566-11.193 2.349-17.962 2.349zm0-81.442c-6.638 0-11.844 1.632-15.619 4.894-3.774 3.263-6.182 8.419-7.223 15.467h45.685c-.911-7.309-3.319-12.53-7.224-15.662-3.773-3.133-8.98-4.699-15.619-4.699zm107.642 80.176c-7.708 0-14.745-1.227-21.113-3.679-6.255-2.453-11.617-6.077-16.085-10.871-4.357-4.794-7.764-10.591-10.222-17.392-2.457-6.913-3.686-14.829-3.686-23.748v-8.696c0-8.808 1.229-16.612 3.686-23.413 2.458-6.913 5.921-12.766 10.389-17.56 4.469-4.794 9.831-8.417 16.086-10.87 6.367-2.564 13.349-3.847 20.945-3.847 6.814 0 12.958 1.004 18.432 3.011 5.585 2.006 10.389 4.738 14.41 8.194a39.89 39.89 0 019.719 11.874 43.56 43.56 0 015.194 14.382h-22.118a33.09 33.09 0 00-3.519-7.191 23.077 23.077 0 00-5.362-6.02c-2.122-1.673-4.58-3.011-7.372-4.014-2.793-1.003-5.921-1.505-9.384-1.505-8.936 0-16.197 3.066-21.783 9.198-5.473 6.132-8.21 15.385-8.21 27.761v8.696c0 6.132.726 11.539 2.178 16.222 1.564 4.571 3.631 8.418 6.2 11.539a26.445 26.445 0 009.551 6.857c3.686 1.561 7.708 2.341 12.064 2.341 6.814 0 12.4-2.007 16.756-6.02 4.357-4.014 7.317-9.365 8.881-16.055H645.5c-.893 5.909-2.625 11.372-5.194 16.389-2.458 4.906-5.753 9.198-9.887 12.877-4.021 3.568-8.768 6.411-14.242 8.529-5.474 2.007-11.618 3.011-18.432 3.011zm86.281 0c-9.049 0-15.919-2.23-20.61-6.69-4.692-4.459-7.038-10.647-7.038-18.563 0-4.348.67-8.25 2.011-11.706 1.452-3.568 3.686-6.523 6.702-8.864 3.128-2.453 7.094-4.292 11.897-5.519 4.916-1.337 10.892-2.006 17.929-2.006h14.075v-5.017c0-4.014-1.117-7.024-3.351-9.031-2.122-2.119-5.697-3.178-10.724-3.178-4.692 0-8.099.892-10.221 2.676-2.122 1.784-3.407 4.125-3.854 7.024h-21.113c.447-7.47 3.463-13.602 9.049-18.396 5.697-4.906 14.41-7.358 26.139-7.358 11.171 0 19.549 2.564 25.134 7.693 5.586 5.128 8.378 11.985 8.378 20.57v56.86h-15.248l-2.01-11.54c-2.905 4.237-6.703 7.47-11.395 9.7-4.579 2.23-9.83 3.345-15.75 3.345zm3.351-16.055c3.128 0 5.976-.502 8.545-1.505 2.681-1.115 4.971-2.565 6.87-4.348 1.9-1.895 3.408-4.014 4.525-6.355 1.116-2.341 1.675-4.85 1.675-7.526v-2.508h-14.075c-6.702 0-11.394 1.115-14.075 3.345-2.681 2.229-4.021 5.24-4.021 9.03 0 3.01.894 5.408 2.681 7.191 1.899 1.784 4.524 2.676 7.875 2.676zm61.919-69.068h15.248l1.508 9.365c2.904-3.568 6.479-6.244 10.723-8.027 4.357-1.896 9.161-2.843 14.411-2.843h8.378v18.061h-8.378c-7.708 0-13.405 1.672-17.091 5.017-3.574 3.345-5.362 7.86-5.362 13.546v48.499h-19.437v-83.618zm91.134 83.617c-8.826 0-15.64-2.341-20.443-7.024-4.691-4.793-7.037-11.65-7.037-20.57v-89.471h19.437v87.465c0 4.348.949 7.525 2.848 9.532 1.899 2.007 4.803 3.01 8.714 3.01h4.189v17.058h-7.708zm43.719 1.506c-9.048 0-15.918-2.23-20.61-6.69-4.691-4.459-7.037-10.647-7.037-18.563 0-4.348.67-8.25 2.011-11.706 1.452-3.568 3.686-6.523 6.702-8.864 3.128-2.453 7.094-4.292 11.897-5.519 4.915-1.337 10.891-2.006 17.929-2.006h14.075v-5.017c0-4.014-1.117-7.024-3.351-9.031-2.122-2.119-5.697-3.178-10.724-3.178-4.692 0-8.098.892-10.221 2.676-2.123 1.784-3.407 4.125-3.854 7.024h-21.113c.448-7.47 3.464-13.602 9.048-18.396 5.697-4.906 14.411-7.358 26.14-7.358 11.171 0 19.549 2.564 25.134 7.693 5.586 5.128 8.378 11.985 8.378 20.57v56.86h-15.248l-2.011-11.54c-2.904 4.237-6.702 7.47-11.394 9.7-4.579 2.23-9.83 3.345-15.751 3.345zm3.352-16.055c3.128 0 5.977-.502 8.545-1.505 2.681-1.115 4.972-2.565 6.87-4.348 1.899-1.895 3.408-4.014 4.524-6.355 1.118-2.341 1.676-4.85 1.676-7.526v-2.508h-14.075c-6.703 0-11.394 1.115-14.075 3.345-2.681 2.229-4.022 5.24-4.022 9.03 0 3.01.894 5.408 2.681 7.191 1.9 1.784 4.524 2.676 7.876 2.676zm109.674 16.055c-7.708 0-14.745-1.227-21.113-3.679-6.256-2.453-11.618-6.077-16.086-10.871-4.356-4.794-7.763-10.591-10.221-17.392-2.458-6.913-3.686-14.829-3.686-23.748v-8.696c0-8.808 1.228-16.612 3.686-23.413 2.458-6.913 5.92-12.766 10.389-17.56 4.468-4.794 9.83-8.417 16.086-10.87 6.367-2.564 13.349-3.847 20.945-3.847 6.815 0 12.955 1.004 18.435 3.011 5.58 2.006 10.39 4.738 14.41 8.194a39.94 39.94 0 019.72 11.874c2.56 4.46 4.3 9.254 5.19 14.382h-22.12a33.002 33.002 0 00-3.52-7.191 23.087 23.087 0 00-5.36-6.02c-2.12-1.673-4.58-3.011-7.37-4.014-2.79-1.003-5.92-1.505-9.385-1.505-8.937 0-16.198 3.066-21.783 9.198-5.474 6.132-8.21 15.385-8.21 27.761v8.696c0 6.132.725 11.539 2.178 16.222 1.563 4.571 3.63 8.418 6.2 11.539a26.445 26.445 0 009.551 6.857c3.686 1.561 7.707 2.341 12.064 2.341 6.815 0 12.395-2.007 16.755-6.02 4.36-4.014 7.32-9.365 8.88-16.055h22.12c-.89 5.909-2.63 11.372-5.19 16.389-2.46 4.906-5.76 9.198-9.89 12.877-4.02 3.568-8.77 6.411-14.24 8.529-5.48 2.007-11.62 3.011-18.435 3.011zm99.685 0c-12.62 0-22.51-3.568-29.66-10.703-7.04-7.135-10.55-17.114-10.55-29.935v-5.352c0-6.355.89-12.041 2.68-17.058 1.9-5.017 4.58-9.254 8.04-12.71 3.57-3.568 7.82-6.244 12.73-8.027 4.92-1.896 10.5-2.843 16.76-2.843 12.62 0 22.45 3.567 29.49 10.703 7.15 7.135 10.72 17.113 10.72 29.935v5.352c0 6.354-.94 12.04-2.84 17.058-1.79 5.017-4.47 9.309-8.05 12.877-3.46 3.456-7.7 6.131-12.73 8.027-4.92 1.784-10.45 2.676-16.59 2.676zm0-18.062c6.37 0 11.23-1.839 14.58-5.518 3.46-3.68 5.19-9.366 5.19-17.058v-5.352c0-7.581-1.79-13.212-5.36-16.891-3.46-3.791-8.27-5.686-14.41-5.686-6.37 0-11.28 1.84-14.75 5.519-3.35 3.679-5.02 9.365-5.02 17.058v5.352c0 7.581 1.73 13.267 5.19 17.058 3.58 3.679 8.44 5.518 14.58 5.518zm84.42 16.556c-8.83 0-15.64-2.341-20.44-7.024-4.7-4.793-7.04-11.65-7.04-20.57v-89.471h19.43v87.465c0 4.348.95 7.525 2.85 9.532 1.9 2.007 4.81 3.01 8.72 3.01h4.19v17.058h-7.71zm55.49 1.506c-12.63 0-22.51-3.568-29.66-10.703-7.04-7.135-10.56-17.114-10.56-29.935v-5.352c0-6.355.9-12.041 2.68-17.058 1.9-5.017 4.58-9.254 8.05-12.71 3.57-3.568 7.82-6.244 12.73-8.027 4.92-1.896 10.5-2.843 16.76-2.843 12.62 0 22.45 3.567 29.49 10.703 7.15 7.135 10.72 17.113 10.72 29.935v5.352c0 6.354-.95 12.04-2.85 17.058-1.78 5.017-4.47 9.309-8.04 12.877-3.46 3.456-7.71 6.131-12.73 8.027-4.92 1.784-10.45 2.676-16.59 2.676zm0-18.062c6.36 0 11.22-1.839 14.57-5.518 3.47-3.68 5.2-9.366 5.2-17.058v-5.352c0-7.581-1.79-13.212-5.36-16.891-3.47-3.791-8.27-5.686-14.41-5.686-6.37 0-11.29 1.84-14.75 5.519-3.35 3.679-5.03 9.365-5.03 17.058v5.352c0 7.581 1.74 13.267 5.2 17.058 3.57 3.679 8.43 5.518 14.58 5.518zm87.93 18.062c-9.83 0-17.59-3.011-23.29-9.031-5.7-6.132-8.54-15.33-8.54-27.594v-48.498h19.43v48.498c0 6.132 1.46 10.759 4.36 13.88 2.9 3.122 6.7 4.683 11.39 4.683 5.7 0 10.23-1.616 13.58-4.85 3.46-3.233 5.3-7.525 5.53-12.877v-49.334h19.43v83.617h-15.24l-1.51-9.198c-3.02 3.456-6.65 6.132-10.89 8.028-4.25 1.783-9 2.676-14.25 2.676zm63.75-85.123h15.25l1.5 9.365c2.91-3.568 6.48-6.244 10.73-8.027 4.35-1.896 9.16-2.843 14.41-2.843h8.38v18.061h-8.38c-7.71 0-13.41 1.672-17.09 5.017-3.58 3.345-5.36 7.86-5.36 13.546v48.499h-19.44v-83.618z" fill="#FFBCBC"/><path fill-rule="evenodd" clip-rule="evenodd" d="M948.779 331.277c-2.463 6.8-3.695 14.605-3.695 23.413v8.696c0 8.919 1.232 16.835 3.695 23.747 2.462 6.801 5.877 12.599 10.243 17.393 4.478 4.794 9.852 8.418 16.122 10.87 6.381 2.453 13.434 3.679 21.159 3.679 6.827 0 12.987-1.003 18.477-3.01 5.48-2.118 10.24-4.961 14.27-8.529 4.14-3.679 7.45-7.971 9.91-12.877 2.43-4.738 4.11-9.873 5.05-15.405l.15-.984H1022c-1.57 6.689-4.54 12.041-8.9 16.054-4.37 4.014-9.97 6.021-16.797 6.021-4.366 0-8.396-.78-12.091-2.341a26.524 26.524 0 01-9.572-6.857c-2.575-3.122-4.646-6.968-6.213-11.539-1.455-4.683-2.184-10.09-2.184-16.222v-8.696c0-12.376 2.744-21.63 8.229-27.762 5.598-6.132 12.875-9.198 21.831-9.198 3.47 0 6.607.502 9.407 1.506 2.8 1.003 5.26 2.341 7.39 4.013a23.128 23.128 0 015.37 6.021 33.013 33.013 0 013.53 7.191h22.16c-.05-.329-.11-.657-.18-.984a43.425 43.425 0 00-5.02-13.398c-2.46-4.572-5.71-8.529-9.74-11.874-4.03-3.456-8.85-6.188-14.44-8.195-5.49-2.007-11.65-3.01-18.477-3.01-7.613 0-14.61 1.282-20.991 3.846-6.27 2.453-11.644 6.077-16.122 10.871-4.477 4.794-7.949 10.647-10.411 17.56zm94.191 4.2a42.367 42.367 0 00-4.87-12.908l-.01-.013v-.012c-2.4-4.459-5.57-8.319-9.5-11.583l-.01-.006-.01-.005c-3.93-3.369-8.63-6.043-14.13-8.014l-.01-.002c-5.36-1.961-11.39-2.95-18.127-2.95-7.499 0-14.37 1.262-20.622 3.775l-.008.003c-6.135 2.4-11.384 5.941-15.76 10.625-4.376 4.684-7.78 10.417-10.204 17.218l-.001.005c-2.417 6.674-3.636 14.362-3.636 23.08v8.696c0 8.829 1.219 16.63 3.637 23.416 2.423 6.691 5.773 12.371 10.04 17.058 4.374 4.68 9.62 8.219 15.751 10.619 6.254 2.404 13.185 3.613 20.803 3.613 6.727 0 12.767-.988 18.127-2.948 5.38-2.078 10.03-4.861 13.96-8.343 4.05-3.596 7.28-7.789 9.68-12.582l.01-.008c2.36-4.596 4-9.58 4.92-14.957h-20.23c-1.65 6.5-4.64 11.781-9 15.793-4.58 4.207-10.43 6.282-17.467 6.282-4.487 0-8.65-.803-12.477-2.419a27.512 27.512 0 01-9.924-7.109l-.013-.015-.013-.015c-2.663-3.228-4.786-7.184-6.384-11.845l-.005-.014-.004-.013c-1.491-4.797-2.227-10.306-2.227-16.513v-8.696c0-12.499 2.767-22.032 8.478-28.416l.007-.007c5.801-6.354 13.352-9.52 22.562-9.52 3.566 0 6.817.515 9.737 1.563 2.89 1.036 5.45 2.423 7.67 4.167a24.126 24.126 0 015.59 6.266 34.126 34.126 0 013.39 6.734h20.28zm36.45-.187c-4.93 1.784-9.18 4.46-12.77 8.027-3.47 3.457-6.15 7.693-8.06 12.71-1.79 5.017-2.68 10.703-2.68 17.058v5.352c0 12.821 3.52 22.8 10.58 29.935 7.16 7.135 17.07 10.703 29.72 10.703 6.16 0 11.7-.892 16.62-2.675 5.04-1.896 9.3-4.572 12.77-8.028 3.58-3.568 6.27-7.86 8.06-12.877 1.9-5.017 2.85-10.703 2.85-17.058v-5.352c0-12.821-3.58-22.799-10.74-29.935-7.06-7.135-16.91-10.703-29.56-10.703-6.27 0-11.87.948-16.79 2.843zm33.07 80.187c4.92-1.851 9.05-4.454 12.41-7.8 3.47-3.459 6.08-7.624 7.83-12.512v-.018c1.86-4.887 2.8-10.452 2.8-16.71v-5.352c0-12.634-3.53-22.335-10.46-29.239l-.01-.006c-6.82-6.901-16.39-10.409-28.85-10.409-6.17 0-11.64.932-16.44 2.777l-.01.003-.01.004c-4.79 1.736-8.92 4.336-12.4 7.798-3.36 3.346-5.97 7.458-7.83 12.353-1.75 4.891-2.63 10.46-2.63 16.719v5.352c0 12.637 3.47 22.338 10.3 29.242 6.93 6.906 16.56 10.413 29.02 10.413 6.06 0 11.48-.878 16.28-2.615zm-31.06-59.45c3.47-3.679 8.4-5.518 14.78-5.518 6.16 0 10.97 1.895 14.44 5.686 3.58 3.679 5.38 9.309 5.38 16.89v5.352c0 7.693-1.74 13.379-5.21 17.058-3.36 3.679-8.23 5.519-14.61 5.519-6.16 0-11.03-1.84-14.61-5.519-3.47-3.791-5.21-9.477-5.21-17.058v-5.352c0-7.692 1.68-13.378 5.04-17.058zm30.11 40.136c-3.59 3.934-8.76 5.835-15.33 5.835-6.37 0-11.52-1.911-15.32-5.818l-.01-.011-.01-.011c-3.7-4.042-5.46-10.009-5.46-17.721v-5.352c0-7.808 1.7-13.782 5.29-17.719l.01-.006v-.006c3.7-3.926 8.92-5.829 15.5-5.829 6.37 0 11.47 1.968 15.16 5.996 3.82 3.934 5.64 9.856 5.64 17.564v5.352c0 7.812-1.76 13.789-5.47 17.726zm49.49 13.688c4.57 4.446 11.12 6.735 19.78 6.735h6.74v-15.09h-3.21c-4.07 0-7.29-1.045-9.45-3.318-2.15-2.271-3.12-5.748-3.12-10.209v-86.48h-17.51v88.487c0 8.745 2.3 15.319 6.77 19.875zm-.7.695c-4.71-4.794-7.06-11.65-7.06-20.57v-89.471h19.48v87.464c0 4.349.95 7.526 2.86 9.533 1.9 2.007 4.81 3.01 8.73 3.01h4.2v17.058h-7.73c-8.84 0-15.67-2.341-20.48-7.024zm105.65-67.396c-7.05-7.135-16.9-10.703-29.55-10.703-6.27 0-11.87.948-16.8 2.843-4.92 1.784-9.18 4.46-12.76 8.027-3.47 3.457-6.16 7.693-8.06 12.71-1.79 5.017-2.69 10.703-2.69 17.058v5.352c0 12.821 3.53 22.8 10.58 29.935 7.17 7.135 17.07 10.703 29.73 10.703 6.15 0 11.69-.892 16.62-2.675 5.04-1.896 9.29-4.572 12.76-8.028 3.59-3.568 6.27-7.86 8.06-12.877 1.91-5.017 2.86-10.703 2.86-17.058v-5.352c0-12.821-3.58-22.799-10.75-29.935zm-13.27 72.327c4.91-1.851 9.04-4.454 12.4-7.8 3.48-3.459 6.09-7.624 7.83-12.512l.01-.009v-.009c1.85-4.887 2.79-10.452 2.79-16.71v-5.352c0-12.634-3.52-22.335-10.46-29.239v-.006c-6.82-6.901-16.4-10.409-28.85-10.409-6.17 0-11.65.932-16.44 2.777l-.01.003-.01.004c-4.79 1.736-8.93 4.336-12.4 7.798-3.36 3.346-5.98 7.458-7.83 12.353-1.75 4.891-2.63 10.46-2.63 16.719v5.352c0 12.637 3.47 22.339 10.29 29.243 6.94 6.905 16.57 10.412 29.03 10.412 6.05 0 11.48-.878 16.28-2.615zm-30.89-19.982c-3.47-3.791-5.21-9.477-5.21-17.058v-5.352c0-7.692 1.68-13.378 5.04-17.058 3.47-3.679 8.39-5.518 14.78-5.518 6.15 0 10.97 1.895 14.44 5.686 3.58 3.679 5.37 9.309 5.37 16.89v5.352c0 7.693-1.73 13.379-5.2 17.058-3.36 3.679-8.23 5.519-14.61 5.519-6.16 0-11.03-1.84-14.61-5.519zm-.9-40.135l.01-.006c3.7-3.926 8.92-5.829 15.5-5.829 6.37 0 11.46 1.968 15.16 5.995 3.82 3.935 5.64 9.856 5.64 17.565v5.352c0 7.812-1.76 13.789-5.47 17.726-3.59 3.934-8.76 5.835-15.33 5.835-6.37 0-11.52-1.911-15.32-5.818l-.01-.011-.01-.011c-3.71-4.042-5.47-10.009-5.47-17.721v-5.352c0-7.808 1.7-13.782 5.3-17.719v-.006zm128.83 53.012c-.28.317-.56.628-.85.932-2.85 3.009-6.21 5.374-10.07 7.096-4.25 1.783-9.01 2.675-14.27 2.675-9.85 0-17.64-3.01-23.35-9.03-5.71-6.132-8.56-15.33-8.56-27.594v-48.499h19.48v48.499c0 6.132 1.45 10.759 4.37 13.88 2.91 3.122 6.71 4.683 11.42 4.683 5.71 0 10.24-1.616 13.6-4.85 3.47-3.233 5.32-7.526 5.54-12.877v-49.335h19.48v83.618h-15.28l-1.51-9.198zm2.35 8.214l-1.72-10.438-1.38 1.578c-2.92 3.345-6.44 5.934-10.56 7.771-4.12 1.724-8.74 2.595-13.88 2.595-9.64 0-17.14-2.934-22.62-8.719-5.48-5.881-8.3-14.795-8.3-26.922v-47.515h17.5v47.515c0 6.272 1.49 11.18 4.63 14.55 3.12 3.343 7.2 4.997 12.15 4.997 5.9 0 10.7-1.677 14.28-5.121 3.68-3.433 5.61-7.98 5.85-13.549v-48.392h17.5v81.65h-13.45zm51.62-82.634h-15.28v83.618h19.48v-48.498c0-5.686 1.79-10.202 5.38-13.546 3.69-3.345 9.4-5.017 17.13-5.017h8.39v-18.062h-8.39c-5.27 0-10.08.948-14.45 2.843-3.85 1.616-7.15 3.963-9.9 7.042-.29.32-.57.649-.84.985l-1.52-9.365zm34.11-.521h-7.4c-5.14 0-9.82.925-14.05 2.761l-.01.005c-4.11 1.721-7.56 4.298-10.37 7.741l-1.39 1.706-1.73-10.708h-13.45v81.65h17.5v-47.514c0-5.91 1.88-10.703 5.69-14.264l.01-.005v-.005c3.96-3.579 9.95-5.273 17.8-5.273h7.4v-16.094zm-887.495-2.154c-2.463 6.8-3.694 14.605-3.694 23.413v8.696c0 8.919 1.231 16.835 3.694 23.747 2.463 6.801 5.878 12.599 10.244 17.393 4.478 4.794 9.852 8.418 16.121 10.87 6.382 2.453 13.435 3.679 21.16 3.679 6.829 0 12.986-1.003 18.472-3.01 5.486-2.118 10.244-4.961 14.274-8.529 4.143-3.679 7.445-7.971 9.908-12.877 2.432-4.738 4.114-9.873 5.049-15.405.055-.327.107-.655.157-.984h-22.167c-1.567 6.689-4.534 12.041-8.9 16.054-4.366 4.014-9.964 6.021-16.793 6.021-4.367 0-8.397-.78-12.091-2.341a26.519 26.519 0 01-9.573-6.857c-2.574-3.122-4.646-6.968-6.213-11.539-1.455-4.683-2.183-10.09-2.183-16.222v-8.696c0-12.376 2.743-21.63 8.229-27.762 5.597-6.132 12.874-9.198 21.831-9.198 3.47 0 6.605.502 9.404 1.506 2.799 1.003 5.262 2.341 7.389 4.013a23.125 23.125 0 015.374 6.021 33 33 0 013.526 7.191h22.167a43.406 43.406 0 00-5.206-14.382c-2.463-4.572-5.709-8.529-9.74-11.874-4.03-3.456-8.844-6.188-14.442-8.195-5.486-2.007-11.643-3.01-18.472-3.01-7.613 0-14.61 1.282-20.992 3.846-6.269 2.453-11.643 6.077-16.121 10.871-4.478 4.794-7.949 10.647-10.412 17.56zm94.195 4.2a42.423 42.423 0 00-4.872-12.908l-.007-.013-.007-.012a38.898 38.898 0 00-9.502-11.583l-.006-.006-.006-.005c-3.929-3.369-8.635-6.043-14.133-8.014l-.006-.002c-5.36-1.961-11.399-2.95-18.131-2.95-7.5 0-14.37 1.262-20.622 3.775l-.009.003c-6.135 2.4-11.384 5.941-15.759 10.625-4.376 4.684-7.781 10.417-10.204 17.218l-.002.005c-2.417 6.674-3.636 14.362-3.636 23.08v8.696c0 8.829 1.22 16.63 3.637 23.416 2.424 6.691 5.774 12.371 10.041 17.058 4.373 4.68 9.62 8.219 15.751 10.619 6.254 2.404 13.184 3.613 20.803 3.613 6.729 0 12.766-.988 18.124-2.948 5.382-2.078 10.033-4.861 13.965-8.343 4.05-3.596 7.275-7.789 9.682-12.582l.004-.008c2.359-4.596 4.002-9.58 4.926-14.957H624.33c-1.649 6.5-4.642 11.781-9.007 15.793-4.576 4.207-10.426 6.282-17.463 6.282-4.487 0-8.65-.803-12.477-2.419a27.516 27.516 0 01-9.925-7.109l-.013-.015-.012-.015c-2.663-3.228-4.786-7.184-6.385-11.845l-.004-.014-.005-.013c-1.491-4.797-2.227-10.306-2.227-16.513v-8.696c0-12.499 2.767-22.032 8.479-28.416l.007-.007c5.8-6.354 13.351-9.52 22.562-9.52 3.566 0 6.816.515 9.738 1.563 2.89 1.036 5.448 2.423 7.667 4.167a24.112 24.112 0 015.596 6.266 33.898 33.898 0 013.387 6.734h20.282zm20.825 37.776c-3.023 2.341-5.262 5.295-6.717 8.863-1.344 3.456-2.016 7.359-2.016 11.707 0 7.916 2.351 14.104 7.053 18.563 4.703 4.459 11.588 6.689 20.656 6.689 5.934 0 11.195-1.114 15.786-3.344 4.279-2.03 7.816-4.89 10.612-8.582.276-.364.545-.737.807-1.118l2.015 11.539h15.282v-56.86c0-8.585-2.799-15.441-8.397-20.57-5.597-5.129-13.993-7.693-25.189-7.693-11.756 0-20.488 2.453-26.198 7.359-5.35 4.581-8.348 10.386-8.993 17.412a28.55 28.55 0 00-.075.983h21.159c.448-2.898 1.736-5.24 3.863-7.023 2.127-1.784 5.542-2.676 10.244-2.676 5.038 0 8.62 1.059 10.747 3.177 2.24 2.007 3.359 5.017 3.359 9.031v5.017h-14.106c-7.054 0-13.043.669-17.969 2.007-4.814 1.226-8.789 3.066-11.923 5.519zm41.32-22.288c2.497 2.251 3.666 5.562 3.666 9.745v6.001h-15.094c-6.996 0-12.893.664-17.709 1.972l-.007.002-.008.002c-4.713 1.201-8.554 2.989-11.558 5.339l-.004.003c-2.882 2.233-5.014 5.044-6.405 8.45-1.291 3.323-1.946 7.1-1.946 11.344 0 7.711 2.283 13.617 6.747 17.851 4.456 4.226 11.058 6.418 19.974 6.418 5.808 0 10.918-1.091 15.353-3.246l.008-.004c4.547-2.155 8.218-5.275 11.029-9.367l1.372-1.997 2.289 13.108h13.463V360.71c0-8.35-2.712-14.93-8.077-19.846-5.346-4.898-13.459-7.433-24.521-7.433-11.645 0-20.099 2.434-25.553 7.119l-.001.001c-5.128 4.393-8.005 9.931-8.645 16.667h19.269c.59-2.744 1.939-5.023 4.05-6.793 2.392-2.006 6.093-2.907 10.88-2.907 5.12 0 9.021 1.066 11.428 3.447zm-10.05 51.462l-.01.004c-2.705 1.054-5.683 1.573-8.925 1.573-3.536 0-6.436-.942-8.57-2.943l-.011-.01-.01-.011c-2.012-2.003-2.977-4.669-2.977-7.886 0-4.054 1.452-7.352 4.386-9.787 2.968-2.462 7.974-3.572 14.739-3.572h15.094v3.492c0 2.817-.591 5.471-1.775 7.948-1.17 2.446-2.748 4.656-4.728 6.628l-.01.011-.011.01c-1.999 1.874-4.399 3.385-7.182 4.54l-.01.003zm-1.378-21.649c-6.718 0-11.42 1.115-14.107 3.345-2.687 2.23-4.03 5.24-4.03 9.031 0 3.01.896 5.407 2.687 7.191 1.903 1.783 4.534 2.676 7.893 2.676 3.135 0 5.99-.502 8.564-1.505 2.687-1.115 4.982-2.565 6.885-4.349 1.904-1.895 3.415-4.013 4.535-6.355 1.119-2.341 1.679-4.849 1.679-7.525v-2.509h-14.106zm69.78-46.826h-15.282v83.618h19.48v-48.498c0-5.686 1.792-10.202 5.374-13.546 3.695-3.345 9.404-5.017 17.129-5.017h8.397v-18.062h-8.397c-5.261 0-10.076.948-14.442 2.843-3.853 1.616-7.155 3.963-9.906 7.042-.286.32-.567.649-.842.985l-1.511-9.365zm34.11-.521h-7.409c-5.14 0-9.818.925-14.047 2.761l-.011.005c-4.105 1.721-7.556 4.298-10.364 7.741l-1.392 1.706-1.729-10.708h-13.452v81.65h17.505v-47.514c0-5.91 1.871-10.703 5.686-14.264l.005-.005.006-.005c3.954-3.579 9.953-5.273 17.793-5.273h7.409v-16.094zm22.155 76.42c4.577 4.446 11.124 6.735 19.789 6.735h6.737v-15.09h-3.21c-4.076 0-7.295-1.045-9.451-3.318-2.153-2.271-3.124-5.748-3.124-10.209v-86.48h-17.505v88.487c0 8.745 2.301 15.319 6.764 19.875zm-.698.695c-4.702-4.794-7.054-11.65-7.054-20.57v-89.471h19.481v87.464c0 4.349.951 7.526 2.854 9.533 1.903 2.007 4.814 3.01 8.733 3.01h4.198v17.058h-7.725c-8.845 0-15.674-2.341-20.487-7.024zm45.327-37.293c-3.023 2.341-5.261 5.295-6.717 8.863-1.343 3.456-2.015 7.359-2.015 11.707 0 7.916 2.351 14.104 7.053 18.563s11.587 6.689 20.655 6.689c5.934 0 11.197-1.114 15.786-3.344 4.279-2.03 7.817-4.89 10.612-8.582.277-.364.546-.737.807-1.118l2.016 11.539h15.281v-56.86c0-8.585-2.798-15.441-8.396-20.57-5.597-5.129-13.994-7.693-25.19-7.693-11.755 0-20.488 2.453-26.197 7.359-5.35 4.581-8.347 10.386-8.994 17.412-.03.325-.055.653-.075.983h21.16c.448-2.898 1.735-5.24 3.862-7.023 2.128-1.784 5.542-2.676 10.244-2.676 5.038 0 8.621 1.059 10.748 3.177 2.239 2.007 3.358 5.017 3.358 9.031v5.017h-14.106c-7.053 0-13.042.669-17.969 2.007-4.813 1.226-8.787 3.066-11.923 5.519zm41.32-22.288c2.497 2.251 3.666 5.562 3.666 9.745v6.001h-15.094c-6.996 0-12.892.664-17.709 1.972l-.007.002-.008.002c-4.713 1.201-8.553 2.989-11.557 5.339l-.004.003c-2.883 2.233-5.014 5.044-6.405 8.45-1.291 3.323-1.946 7.1-1.946 11.344 0 7.711 2.283 13.617 6.747 17.851 4.456 4.226 11.057 6.418 19.973 6.418 5.809 0 10.918-1.091 15.353-3.246l.008-.004c4.547-2.155 8.218-5.275 11.029-9.367l1.373-1.997 2.288 13.108h13.463V360.71c0-8.35-2.71-14.93-8.077-19.846-5.345-4.898-13.458-7.433-24.521-7.433-11.645 0-20.098 2.434-25.552 7.119l-.001.001c-5.129 4.393-8.006 9.931-8.646 16.667h19.27c.59-2.744 1.938-5.023 4.049-6.793 2.393-2.006 6.093-2.907 10.88-2.907 5.12 0 9.023 1.066 11.428 3.447zm-10.05 51.462l-.01.004c-2.705 1.054-5.683 1.573-8.925 1.573-3.535 0-6.436-.942-8.569-2.943l-.011-.01-.011-.011c-2.011-2.003-2.976-4.669-2.976-7.886 0-4.054 1.452-7.352 4.386-9.787 2.967-2.462 7.973-3.572 14.738-3.572h15.094v3.492c0 2.817-.591 5.471-1.775 7.948-1.17 2.446-2.747 4.656-4.728 6.628l-.01.011-.011.01c-1.999 1.874-4.398 3.385-7.182 4.54l-.01.003zm6.515-5.26c-1.903 1.784-4.198 3.234-6.885 4.349-2.575 1.003-5.43 1.505-8.565 1.505-3.359 0-5.989-.893-7.893-2.676-1.791-1.784-2.687-4.181-2.687-7.191 0-3.791 1.344-6.801 4.031-9.031 2.687-2.23 7.389-3.345 14.106-3.345h14.106v2.509c0 2.676-.559 5.184-1.679 7.525-1.119 2.342-2.631 4.46-4.534 6.355z" fill="#FFBCBC"/><path d="M29.984 526.4l-6.566-16.96V600H4.199V488h28.828l24.984 60.64L82.995 488h28.507v112H92.284v-90.72l-6.726 17.12-18.098 44H48.242l-18.258-44zm136.703 75.04c-12.065 0-21.514-3.413-28.347-10.24-6.727-6.827-10.09-16.373-10.09-28.64v-5.12c0-6.08.855-11.52 2.562-16.32 1.816-4.8 4.379-8.853 7.688-12.16 3.417-3.413 7.474-5.973 12.171-7.68 4.699-1.813 10.037-2.72 16.016-2.72 12.066 0 21.461 3.413 28.187 10.24 6.834 6.827 10.25 16.373 10.25 28.64v5.12c0 6.08-.907 11.52-2.723 16.32-1.707 4.8-4.27 8.907-7.687 12.32-3.309 3.307-7.367 5.867-12.172 7.68-4.697 1.707-9.982 2.56-15.855 2.56zm0-17.28c6.086 0 10.73-1.76 13.933-5.28 3.311-3.52 4.965-8.96 4.965-16.32v-5.12c0-7.253-1.708-12.64-5.125-16.16-3.309-3.627-7.9-5.44-13.773-5.44-6.086 0-10.784 1.76-14.094 5.28-3.203 3.52-4.804 8.96-4.804 16.32v5.12c0 7.253 1.655 12.693 4.964 16.32 3.418 3.52 8.062 5.28 13.934 5.28zm81.327 17.28c-4.697 0-8.968-.8-12.812-2.4-3.844-1.6-7.207-4-10.09-7.2-2.775-3.307-4.965-7.36-6.566-12.16-1.495-4.907-2.242-10.613-2.242-17.12v-5.12c0-6.4.8-12 2.402-16.8 1.602-4.8 3.791-8.853 6.566-12.16 2.883-3.307 6.246-5.76 10.09-7.36 3.844-1.707 8.062-2.56 12.652-2.56 9.93 0 17.724 3.147 23.383 9.44v-40h18.578v112h-14.574l-1.762-10.72c-2.776 4.053-6.352 7.093-10.73 9.12-4.378 2.027-9.342 3.04-14.895 3.04zm5.606-17.28c5.019 0 9.183-1.707 12.492-5.12 3.31-3.52 5.072-8.64 5.285-15.36v-6.24c0-7.04-1.708-12.373-5.125-16-3.309-3.733-7.527-5.6-12.652-5.6-5.659 0-10.036 1.707-13.133 5.12-3.096 3.307-4.644 8.8-4.644 16.48v5.12c0 7.36 1.601 12.8 4.804 16.32 3.203 3.52 7.527 5.28 12.973 5.28zm89.937 17.28c-5.765 0-10.943-.853-15.535-2.56-4.59-1.813-8.541-4.373-11.851-7.68-3.309-3.413-5.872-7.52-7.687-12.32-1.708-4.8-2.563-10.24-2.563-16.32v-5.12c0-6.08.855-11.52 2.563-16.32 1.815-4.8 4.378-8.853 7.687-12.16 3.31-3.413 7.261-5.973 11.851-7.68 4.592-1.813 9.77-2.72 15.535-2.72 11.639 0 20.821 3.573 27.547 10.72 6.726 7.147 10.09 17.387 10.09 30.72v6.24h-56.695c.535 6.72 2.402 11.573 5.605 14.56 3.204 2.88 7.688 4.32 13.453 4.32 5.66 0 9.77-.96 12.332-2.88 2.67-2.027 4.432-4.373 5.285-7.04h19.219c-.854 3.733-2.188 7.2-4.004 10.4-1.815 3.2-4.217 5.973-7.207 8.32-2.989 2.347-6.619 4.213-10.89 5.6-4.27 1.28-9.182 1.92-14.735 1.92zm0-66.56c-5.445 0-9.715 1.333-12.812 4-3.096 2.667-5.071 6.88-5.926 12.64h37.477c-.747-5.973-2.723-10.24-5.926-12.8-3.096-2.56-7.367-3.84-12.813-3.84zM397.216 520h14.574l1.442 8.96a26.017 26.017 0 0110.25-7.68c4.164-1.813 8.754-2.72 13.773-2.72h8.008v17.28h-8.008c-7.367 0-12.813 1.6-16.336 4.8-3.417 3.2-5.125 7.52-5.125 12.96V600h-18.578v-80zm60.84 0h14.574l1.441 8.96c5.979-6.933 14.254-10.4 24.824-10.4 9.823 0 17.457 2.933 22.902 8.8 5.553 5.76 8.328 14.507 8.328 26.24V600h-18.578v-46.4c0-5.867-1.441-10.293-4.324-13.28-2.775-2.987-6.619-4.48-11.531-4.48-5.765 0-10.357 1.547-13.773 4.64-3.31 3.093-5.072 7.2-5.285 12.32V600h-18.578v-80zm92.92-32h19.219v95.04h49.648V600h-68.867V488zm112.89 113.44c-5.765 0-10.943-.853-15.535-2.56-4.59-1.813-8.541-4.373-11.851-7.68-3.309-3.413-5.872-7.52-7.687-12.32-1.708-4.8-2.563-10.24-2.563-16.32v-5.12c0-6.08.855-11.52 2.563-16.32 1.815-4.8 4.378-8.853 7.687-12.16 3.31-3.413 7.261-5.973 11.851-7.68 4.592-1.813 9.77-2.72 15.535-2.72 11.639 0 20.82 3.573 27.547 10.72 6.726 7.147 10.09 17.387 10.09 30.72v6.24h-56.695c.534 6.72 2.402 11.573 5.605 14.56 3.203 2.88 7.688 4.32 13.453 4.32 5.66 0 9.77-.96 12.332-2.88 2.67-2.027 4.431-4.373 5.285-7.04h19.219c-.854 3.733-2.188 7.2-4.004 10.4-1.815 3.2-4.217 5.973-7.207 8.32-2.989 2.347-6.619 4.213-10.89 5.6-4.271 1.28-9.182 1.92-14.735 1.92zm0-66.56c-5.445 0-9.715 1.333-12.812 4-3.096 2.667-5.071 6.88-5.926 12.64h37.476c-.746-5.973-2.722-10.24-5.925-12.8-3.096-2.56-7.367-3.84-12.813-3.84zm80.565 63.36c-4.699 0-8.969-.747-12.812-2.24-3.844-1.6-7.207-3.947-10.09-7.04-2.777-3.093-4.965-6.933-6.566-11.52-1.496-4.693-2.243-10.187-2.243-16.48v-5.12c0-5.973.801-11.253 2.403-15.84 1.601-4.693 3.789-8.587 6.566-11.68 2.883-3.2 6.246-5.6 10.09-7.2 3.844-1.707 8.061-2.56 12.652-2.56 11.317 0 19.859 4 25.625 12l1.761-10.56h14.574v80c0 11.093-2.882 19.413-8.648 24.96-5.765 5.653-14.734 8.48-26.906 8.48-5.659 0-10.57-.587-14.734-1.76-4.058-1.173-7.474-2.88-10.25-5.12-2.777-2.24-4.912-5.013-6.406-8.32-1.388-3.2-2.296-6.88-2.723-11.04h18.578c.854 3.733 2.403 6.56 4.645 8.48 2.242 1.92 5.871 2.88 10.89 2.88 5.766 0 10.036-1.493 12.813-4.48 2.775-2.88 4.164-7.573 4.164-14.08v-11.2c-2.883 3.093-6.301 5.44-10.25 7.04-3.951 1.6-8.328 2.4-13.133 2.4zm5.605-17.28c5.125 0 9.342-1.76 12.653-5.28 3.416-3.52 5.125-8.427 5.125-14.72v-5.12c0-6.293-1.709-11.2-5.125-14.72-3.311-3.52-7.528-5.28-12.653-5.28-5.659 0-10.036 1.653-13.132 4.96-3.097 3.2-4.645 8.213-4.645 15.04v5.12c0 6.613 1.602 11.627 4.805 15.04 3.203 3.307 7.527 4.96 12.972 4.96zm77.927 20.48c-8.649 0-15.215-2.133-19.699-6.4-4.485-4.267-6.727-10.187-6.727-17.76 0-4.16.641-7.893 1.922-11.2 1.388-3.413 3.523-6.24 6.406-8.48 2.99-2.347 6.78-4.107 11.371-5.28 4.698-1.28 10.41-1.92 17.137-1.92h13.453v-4.8c0-3.84-1.068-6.72-3.204-8.64-2.028-2.027-5.445-3.04-10.249-3.04-4.485 0-7.741.853-9.77 2.56s-3.256 3.947-3.683 6.72h-20.18c.428-7.147 3.31-13.013 8.648-17.6 5.446-4.693 13.774-7.04 24.985-7.04 10.677 0 18.685 2.453 24.023 7.36 5.338 4.907 8.008 11.467 8.008 19.68V600h-14.575l-1.921-11.04c-2.776 4.053-6.407 7.147-10.891 9.28-4.377 2.133-9.396 3.2-15.054 3.2zm3.203-15.36c2.99 0 5.712-.48 8.168-1.44 2.562-1.067 4.751-2.453 6.566-4.16a21.83 21.83 0 004.324-6.08c1.068-2.24 1.602-4.64 1.602-7.2v-2.4h-13.453c-6.407 0-10.891 1.067-13.453 3.2-2.563 2.133-3.844 5.013-3.844 8.64 0 2.88.854 5.173 2.562 6.88 1.815 1.707 4.325 2.56 7.528 2.56zm92.013 15.36c-5.765 0-10.997-.853-15.695-2.56-4.591-1.813-8.541-4.373-11.851-7.68-3.203-3.413-5.713-7.52-7.527-12.32-1.709-4.8-2.563-10.24-2.563-16.32v-5.12c0-5.973.854-11.36 2.563-16.16 1.814-4.8 4.377-8.853 7.687-12.16 3.31-3.413 7.26-6.027 11.851-7.84 4.698-1.813 9.877-2.72 15.535-2.72 10.143 0 17.991 2.507 23.543 7.52 5.659 5.013 9.289 11.52 10.891 19.52h-19.86c-.853-2.88-2.615-5.227-5.285-7.04-2.669-1.813-6.032-2.72-10.089-2.72-2.35 0-4.592.427-6.727 1.28-2.029.747-3.844 2.027-5.445 3.84-1.602 1.707-2.883 3.947-3.844 6.72-.854 2.667-1.281 5.92-1.281 9.76v5.12c0 3.733.48 6.987 1.441 9.76.961 2.667 2.242 4.907 3.844 6.72 1.602 1.707 3.416 2.987 5.445 3.84a17.553 17.553 0 006.567 1.28c4.591 0 8.06-1.013 10.41-3.04 2.455-2.027 4.111-4.533 4.964-7.52h19.86c-1.602 8.427-5.232 15.2-10.891 20.32-5.552 5.013-13.4 7.52-23.543 7.52zM990.66 600l-32.191-80h20.18l21.781 57.28 20.5-57.28h19.22l-42.443 112h-19.218l12.171-32z" fill="#FFBCBC"/><path fill-rule="evenodd" clip-rule="evenodd" d="M32.856 488H4v112h19.237v-90.56l6.573 16.96 18.275 44h19.237l18.115-44 6.733-17.12V600h19.237V488H82.872l-25.008 60.64L32.856 488zm50.687 1l-25.68 62.267L32.186 489H5.002v110h17.233v-89.56l1.937-.361 6.568 16.949L48.754 569.4h17.897l17.853-43.365 6.733-17.12 1.935.365V599h17.233V489H83.543zm67.071 32.28c-4.702 1.707-8.763 4.267-12.184 7.68-3.312 3.307-5.877 7.36-7.695 12.16-1.709 4.8-2.565 10.24-2.565 16.32v5.12c0 12.267 3.367 21.813 10.1 28.64 6.84 6.827 16.298 10.24 28.375 10.24 5.878 0 11.168-.853 15.87-2.56 4.81-1.813 8.871-4.373 12.184-7.68 3.42-3.413 5.985-7.52 7.695-12.32 1.817-4.8 2.725-10.24 2.725-16.32v-5.12c0-12.267-3.42-21.813-10.26-28.64-6.733-6.827-16.137-10.24-28.214-10.24-5.985 0-11.328.907-16.031 2.72zm31.555 76.662c4.686-1.768 8.62-4.254 11.821-7.449 3.31-3.303 5.797-7.28 7.46-11.948l.003-.009.004-.009c1.766-4.669 2.66-9.986 2.66-15.967v-5.12c0-12.077-3.362-21.341-9.966-27.933l-.005-.006c-6.5-6.589-15.619-9.941-27.501-9.941-5.884 0-11.102.891-15.67 2.653l-.01.003-.009.004c-4.569 1.658-8.504 4.141-11.817 7.447-3.201 3.195-5.691 7.121-7.463 11.797-1.662 4.672-2.504 9.993-2.504 15.976v5.12c0 12.079 3.311 21.345 9.809 27.936 6.608 6.593 15.785 9.944 27.664 9.944 5.779 0 10.949-.839 15.524-2.498zm-29.632-56.822c3.314-3.52 8.016-5.28 14.108-5.28 5.878 0 10.474 1.813 13.786 5.44 3.421 3.52 5.13 8.907 5.13 16.16v5.12c0 7.36-1.656 12.8-4.969 16.32-3.207 3.52-7.856 5.28-13.947 5.28-5.878 0-10.527-1.76-13.947-5.28-3.313-3.627-4.97-9.067-4.97-16.32v-5.12c0-7.36 1.603-12.8 4.809-16.32zm28.791 38.439c-3.446 3.779-8.396 5.601-14.683 5.601-6.092 0-11.022-1.832-14.667-5.584l-.01-.011-.011-.011c-3.545-3.882-5.231-9.608-5.231-16.994v-5.12c0-7.478 1.625-13.21 5.07-16.993l.006-.006.005-.006c3.55-3.77 8.546-5.595 14.838-5.595 6.093 0 10.978 1.888 14.517 5.755 3.664 3.779 5.401 9.462 5.401 16.845v5.12c0 7.481-1.679 13.217-5.235 16.999zm89.126-52.617c-5.57-5.588-13.037-8.382-22.403-8.382-4.596 0-8.817.853-12.665 2.56-3.847 1.6-7.214 4.053-10.099 7.36-2.779 3.307-4.97 7.36-6.573 12.16-1.603 4.8-2.405 10.4-2.405 16.8v5.12c0 6.507.749 12.213 2.245 17.12 1.603 4.8 3.794 8.853 6.572 12.16 2.886 3.2 6.253 5.6 10.1 7.2 3.847 1.6 8.123 2.4 12.825 2.4 5.557 0 10.527-1.013 14.908-3.04 3.959-1.831 7.263-4.489 9.915-7.975.282-.372.558-.754.826-1.145l1.764 10.72h14.588V488h-18.596v40a28.77 28.77 0 00-1.002-1.058zM272.458 489v41.61l-1.748-1.942c-5.44-6.045-12.951-9.108-22.659-9.108-4.469 0-8.55.829-12.258 2.474l-.011.005-.01.004c-3.695 1.537-6.935 3.893-9.724 7.087-2.682 3.194-4.815 7.129-6.383 11.826-1.562 4.675-2.354 10.164-2.354 16.484v5.12c0 6.428.739 12.028 2.198 16.816 1.567 4.689 3.697 8.618 6.374 11.808 2.787 3.087 6.029 5.394 9.729 6.933 3.71 1.543 7.852 2.323 12.439 2.323 5.433 0 10.255-.99 14.488-2.947 4.214-1.95 7.655-4.87 10.335-8.778l1.41-2.058 2.03 12.343h12.736V489h-16.592zm-5.567 90.73l-.006.006c-3.513 3.619-7.946 5.424-13.224 5.424-5.687 0-10.301-1.848-13.726-5.607-3.445-3.783-5.07-9.515-5.07-16.993v-5.12c0-7.765 1.558-13.572 4.914-17.157 3.331-3.665 8.008-5.443 13.882-5.443 5.403 0 9.898 1.979 13.405 5.926 3.648 3.876 5.392 9.492 5.392 16.674v6.256l-.001.016c-.219 6.868-2.025 12.256-5.561 16.013l-.005.005zm-.565-38.29c-3.313-3.733-7.535-5.6-12.665-5.6-5.663 0-10.046 1.707-13.145 5.12-3.099 3.307-4.649 8.8-4.649 16.48v5.12c0 7.36 1.603 12.8 4.809 16.32 3.207 3.52 7.535 5.28 12.985 5.28 5.023 0 9.191-1.707 12.505-5.12 3.313-3.52 5.076-8.64 5.29-15.36v-6.24c0-7.04-1.71-12.373-5.13-16zm49.947-12.48c-3.312 3.307-5.877 7.36-7.695 12.16-1.709 4.8-2.565 10.24-2.565 16.32v5.12c0 6.08.856 11.52 2.565 16.32 1.818 4.8 4.383 8.907 7.695 12.32 3.314 3.307 7.268 5.867 11.863 7.68 4.596 1.707 9.779 2.56 15.55 2.56 5.558 0 10.474-.64 14.749-1.92 4.275-1.387 7.909-3.253 10.901-5.6 2.992-2.347 5.397-5.12 7.213-8.32 1.655-2.912 2.909-6.046 3.767-9.4.084-.331.165-.665.241-1H361.32c-.854 2.667-2.618 5.013-5.29 7.04-2.565 1.92-6.679 2.88-12.344 2.88-5.771 0-10.26-1.44-13.466-4.32-3.045-2.836-4.884-7.356-5.519-13.56a38.24 38.24 0 01-.092-1h56.75V560c0-13.333-3.367-23.573-10.1-30.72-6.733-7.147-15.923-10.72-27.573-10.72-5.771 0-10.954.907-15.55 2.72-4.595 1.707-8.549 4.267-11.863 7.68zm64.084 36.28V560c0-13.172-3.324-23.132-9.827-30.035-6.509-6.909-15.416-10.405-26.844-10.405-5.666 0-10.721.89-15.181 2.65l-.01.004-.009.003c-4.46 1.657-8.287 4.136-11.493 7.439l-.005.005-.006.006c-3.201 3.195-5.691 7.121-7.463 11.797-1.662 4.672-2.504 9.993-2.504 15.976v5.12c0 5.983.842 11.304 2.504 15.976 1.772 4.675 4.262 8.657 7.468 11.961 3.207 3.201 7.039 5.685 11.508 7.449 4.463 1.656 9.523 2.494 15.191 2.494 5.479 0 10.291-.631 14.45-1.875 4.178-1.356 7.699-3.171 10.58-5.431 2.894-2.269 5.211-4.944 6.962-8.027a36.927 36.927 0 003.603-8.907h-17.25c-.999 2.606-2.818 4.882-5.395 6.836l-.005.004c-2.827 2.117-7.211 3.08-12.945 3.08-5.933 0-10.691-1.482-14.136-4.577l-.006-.006-.007-.006c-3.467-3.229-5.383-8.373-5.927-15.212l-.085-1.079h56.832zm-56.588-12.72l.17-1.146c.876-5.898 2.923-10.373 6.268-13.251 3.335-2.869 7.869-4.243 13.479-4.243 5.598 0 10.125 1.314 13.458 4.064 3.484 2.786 5.528 7.344 6.293 13.452l.141 1.124h-39.809zm32.742-13.8c-3.099-2.56-7.374-3.84-12.825-3.84-5.45 0-9.725 1.333-12.825 4-2.916 2.51-4.839 6.39-5.769 11.64-.058.328-.112.661-.162 1h37.512a32.58 32.58 0 00-.139-1c-.837-5.452-2.767-9.385-5.792-11.8zM411.984 520h-14.588v80h18.596v-46.4c0-5.44 1.71-9.76 5.13-12.96 3.526-3.2 8.977-4.8 16.351-4.8h8.015v-17.28h-8.015c-5.023 0-9.619.907-13.786 2.72-3.655 1.536-6.79 3.763-9.406 6.68a27.55 27.55 0 00-.854 1l-1.443-8.96zm32.503-.44h-7.014c-4.899 0-9.357.884-13.386 2.637l-.011.005c-3.91 1.643-7.197 4.103-9.871 7.389l-1.412 1.734L411.13 521h-12.732v78h16.592v-45.4c0-5.667 1.791-10.269 5.447-13.69l.005-.005.006-.005c3.789-3.438 9.534-5.06 17.025-5.06h7.014v-15.28zm28.396.44h-14.588v80h18.596v-47.2c.213-5.12 1.977-9.227 5.29-12.32 3.42-3.093 8.016-4.64 13.787-4.64 4.915 0 8.763 1.493 11.542 4.48 2.886 2.987 4.328 7.413 4.328 13.28V600h18.596v-46.4c0-11.733-2.779-20.48-8.336-26.24-5.45-5.867-13.092-8.8-22.924-8.8-10.082 0-18.078 3.148-23.987 9.444-.293.311-.579.629-.861.956l-1.443-8.96zm56.549 79v-45.4c0-11.594-2.747-20.044-8.056-25.546l-.006-.007-.007-.007c-5.219-5.618-12.567-8.48-22.189-8.48-10.339 0-18.324 3.375-24.089 10.053l-1.406 1.629L472.03 521h-12.733v78h16.592v-46.221l.001-.021c.223-5.344 2.076-9.712 5.607-13.008l.005-.006.006-.005c3.647-3.299 8.504-4.899 14.46-4.899 5.129 0 9.264 1.566 12.27 4.792 3.124 3.239 4.602 7.954 4.602 13.968V599h16.592zm41.111-15.96V488h-19.237v112h68.933v-16.96h-49.696zm48.694 1h-49.696V489h-17.234v110h66.93v-14.96zm17.655-55.08c-3.313 3.307-5.878 7.36-7.695 12.16-1.709 4.8-2.565 10.24-2.565 16.32v5.12c0 6.08.856 11.52 2.565 16.32 1.817 4.8 4.382 8.907 7.695 12.32 3.313 3.307 7.268 5.867 11.863 7.68 4.595 1.707 9.778 2.56 15.55 2.56 5.557 0 10.474-.64 14.748-1.92 4.275-1.387 7.909-3.253 10.901-5.6 2.993-2.347 5.397-5.12 7.214-8.32a37.969 37.969 0 003.766-9.4c.084-.331.165-.665.242-1h-19.238c-.854 2.667-2.618 5.013-5.29 7.04-2.565 1.92-6.679 2.88-12.343 2.88-5.772 0-10.26-1.44-13.466-4.32-3.045-2.836-4.885-7.356-5.52-13.56a43.162 43.162 0 01-.091-1h56.749V560c0-13.333-3.366-23.573-10.099-30.72-6.733-7.147-15.924-10.72-27.573-10.72-5.772 0-10.955.907-15.55 2.72-4.595 1.707-8.55 4.267-11.863 7.68zm64.083 36.28V560c0-13.172-3.323-23.132-9.827-30.035-6.508-6.909-15.415-10.405-26.843-10.405-5.666 0-10.721.89-15.182 2.65l-.01.004-.009.003c-4.459 1.657-8.287 4.136-11.493 7.439l-.005.005-.006.006c-3.2 3.195-5.691 7.12-7.461 11.796-1.664 4.672-2.505 9.993-2.505 15.977v5.12c0 5.984.841 11.305 2.505 15.977 1.77 4.675 4.261 8.657 7.466 11.961 3.207 3.2 7.04 5.684 11.508 7.448 4.464 1.656 9.524 2.494 15.192 2.494 5.478 0 10.29-.631 14.449-1.875 4.178-1.356 7.699-3.171 10.581-5.431 2.893-2.269 5.211-4.944 6.961-8.027a36.887 36.887 0 003.603-8.907h-17.25c-.999 2.606-2.818 4.882-5.395 6.836l-.005.004c-2.827 2.117-7.21 3.08-12.944 3.08-5.934 0-10.692-1.482-14.137-4.577l-.006-.006-.007-.006c-3.466-3.229-5.382-8.373-5.926-15.212l-.085-1.079h56.831zm-56.588-12.72l.17-1.146c.876-5.898 2.923-10.373 6.269-13.251 3.334-2.869 7.869-4.243 13.479-4.243 5.597 0 10.124 1.314 13.457 4.064 3.484 2.786 5.528 7.344 6.294 13.452l.14 1.124h-39.809zm32.742-13.8c-3.099-2.56-7.374-3.84-12.824-3.84-5.451 0-9.725 1.333-12.825 4-2.917 2.51-4.84 6.39-5.769 11.64-.058.328-.113.661-.163 1h37.513a29.74 29.74 0 00-.14-1c-.836-5.452-2.767-9.385-5.792-11.8zm92.635-9.261c-5.749-7.266-14.021-10.899-24.817-10.899-4.596 0-8.818.853-12.664 2.56-3.849 1.6-7.215 4-10.101 7.2-2.778 3.093-4.969 6.987-6.573 11.68-1.602 4.587-2.404 9.867-2.404 15.84v5.12c0 6.293.748 11.787 2.245 16.48 1.602 4.587 3.793 8.427 6.573 11.52 2.885 3.093 6.252 5.44 10.098 7.04 3.848 1.493 8.123 2.24 12.826 2.24 4.809 0 9.191-.8 13.145-2.4 3.506-1.419 6.592-3.424 9.258-6.017.341-.331.675-.672 1.002-1.023V600c0 6.507-1.39 11.2-4.169 14.08-2.778 2.987-7.053 4.48-12.825 4.48-5.022 0-8.656-.96-10.901-2.88-2.244-1.92-3.793-4.747-4.649-8.48h-18.595c.035.336.073.67.113 1 .465 3.752 1.335 7.099 2.612 10.04 1.497 3.307 3.634 6.08 6.412 8.32 2.78 2.24 6.199 3.947 10.261 5.12 4.167 1.173 9.083 1.76 14.747 1.76 12.185 0 21.161-2.827 26.932-8.48 5.771-5.547 8.658-13.867 8.658-24.96v-80H772.36l-1.764 10.56a31.082 31.082 0 00-.832-1.101zm3.444-8.459l-2.019 12.093-1.406-1.949c-5.554-7.698-13.776-11.584-24.836-11.584-4.469 0-8.55.829-12.258 2.474l-.011.005-.011.004c-3.705 1.541-6.949 3.852-9.738 6.944-2.674 2.976-4.803 6.746-6.371 11.336l-.002.006c-1.559 4.46-2.349 9.625-2.349 15.511v5.12c0 6.212.738 11.594 2.193 16.164 1.565 4.473 3.691 8.187 6.362 11.162 2.786 2.984 6.029 5.243 9.734 6.786 3.714 1.44 7.86 2.168 12.451 2.168 4.696 0 8.948-.781 12.769-2.327 3.819-1.545 7.117-3.809 9.903-6.794l1.735-1.861V600c0 6.607-1.404 11.613-4.443 14.768-3.035 3.258-7.624 4.792-13.553 4.792-5.107 0-9.036-.969-11.552-3.121-2.284-1.954-3.86-4.728-4.783-8.239h-16.687c.458 3.62 1.301 6.828 2.519 9.634 1.432 3.164 3.472 5.81 6.125 7.948 2.658 2.142 5.952 3.794 9.907 4.937 4.056 1.141 8.875 1.721 14.471 1.721 12.053 0 20.723-2.799 26.231-8.194l.007-.006c5.509-5.295 8.35-13.311 8.35-24.24v-79h-12.738zm-35.636 55c-3.206-3.413-4.809-8.427-4.809-15.04v-5.12c0-6.827 1.55-11.84 4.648-15.04 3.1-3.307 7.482-4.96 13.146-4.96 5.13 0 9.352 1.76 12.665 5.28 3.42 3.52 5.13 8.427 5.13 14.72v5.12c0 6.293-1.71 11.2-5.13 14.72-3.313 3.52-7.535 5.28-12.665 5.28-5.451 0-9.779-1.653-12.985-4.96zm-.887-35.889c-3.351 3.465-4.924 8.782-4.924 15.729v5.12c0 6.762 1.64 12.061 5.08 15.724l.005.006.006.005c3.429 3.537 8.037 5.265 13.705 5.265 5.385 0 9.875-1.859 13.389-5.589 3.645-3.755 5.408-8.937 5.408-15.411v-5.12c0-6.474-1.763-11.656-5.408-15.411-3.514-3.73-8.004-5.589-13.389-5.589-5.864 0-10.539 1.718-13.872 5.271zm73.759 17.489c-2.885 2.24-5.023 5.067-6.412 8.48-1.282 3.307-1.924 7.04-1.924 11.2 0 7.573 2.245 13.493 6.733 17.76 4.489 4.267 11.062 6.4 19.718 6.4 5.664 0 10.687-1.067 15.069-3.2 4.06-1.93 7.421-4.645 10.082-8.145.28-.37.554-.748.819-1.135l1.924 11.04h14.588v-54.4c0-8.213-2.672-14.773-8.015-19.68-5.345-4.907-13.36-7.36-24.047-7.36-11.221 0-19.557 2.347-25.008 7.04-5.093 4.371-7.952 9.904-8.58 16.6-.032.331-.057.664-.077 1h20.199c.427-2.773 1.657-5.013 3.688-6.72 2.029-1.707 5.29-2.56 9.778-2.56 4.81 0 8.229 1.013 10.26 3.04 2.137 1.92 3.206 4.8 3.206 8.64v4.8h-13.466c-6.733 0-12.451.64-17.153 1.92-4.596 1.173-8.39 2.933-11.382 5.28zm39.485-21.366c2.399 2.168 3.518 5.354 3.518 9.366v5.8h-14.468c-6.675 0-12.298.635-16.889 1.885l-.008.002-.007.002c-4.494 1.147-8.152 2.855-11.011 5.097l-.004.003c-2.744 2.13-4.773 4.811-6.097 8.06-1.229 3.171-1.853 6.777-1.853 10.831 0 7.365 2.175 12.999 6.422 17.036 4.239 4.029 10.525 6.124 19.027 6.124 5.537 0 10.405-1.042 14.63-3.099l.009-.004c4.33-2.058 7.827-5.036 10.504-8.942l1.392-2.03L857.296 599h12.743v-53.4c0-7.975-2.583-14.253-7.692-18.944-5.087-4.672-12.815-7.096-23.368-7.096-11.109 0-19.163 2.328-24.354 6.797l-.001.001c-4.868 4.179-7.605 9.441-8.226 15.842h18.282c.571-2.617 1.861-4.792 3.875-6.485 2.3-1.933 5.849-2.795 10.424-2.795 4.893 0 8.637 1.02 10.95 3.314zm-9.613 49.333l-.01.004c-2.589 1.011-5.44 1.509-8.54 1.509-3.387 0-6.17-.905-8.222-2.832l-.011-.01-.01-.011c-1.934-1.93-2.859-4.497-2.859-7.587 0-3.894 1.393-7.067 4.208-9.408 2.849-2.37 7.647-3.432 14.107-3.432h14.468v3.4c0 2.704-.566 5.251-1.7 7.63a22.837 22.837 0 01-4.525 6.357l-.011.011-.011.01c-1.914 1.798-4.21 3.247-6.874 4.355l-.01.004zm6.198-5.087c-1.818 1.707-4.008 3.093-6.573 4.16-2.459.96-5.184 1.44-8.175 1.44-3.207 0-5.719-.853-7.535-2.56-1.71-1.707-2.565-4-2.565-6.88 0-3.627 1.282-6.507 3.847-8.64 2.565-2.133 7.054-3.2 13.466-3.2h13.466v2.4c0 2.56-.535 4.96-1.603 7.2-1.069 2.24-2.512 4.267-4.328 6.08zm100.92-54.4c-5.558-5.013-13.413-7.52-23.566-7.52-5.665 0-10.848.907-15.55 2.72-4.596 1.813-8.55 4.427-11.863 7.84-3.313 3.307-5.878 7.36-7.695 12.16-1.71 4.8-2.565 10.187-2.565 16.16v5.12c0 6.08.855 11.52 2.565 16.32 1.817 4.8 4.329 8.907 7.535 12.32 3.312 3.307 7.267 5.867 11.863 7.68 4.702 1.707 9.939 2.56 15.71 2.56 10.153 0 18.008-2.507 23.566-7.52 5.438-4.916 9.004-11.356 10.699-19.32.07-.331.138-.664.202-1h-19.879c-.855 2.987-2.512 5.493-4.969 7.52-2.352 2.027-5.826 3.04-10.42 3.04-2.245 0-4.436-.427-6.573-1.28-2.031-.853-3.848-2.133-5.451-3.84-1.603-1.813-2.885-4.053-3.847-6.72-.962-2.773-1.443-6.027-1.443-9.76v-5.12c0-3.84.427-7.093 1.283-9.76.961-2.773 2.244-5.013 3.847-6.72 1.603-1.813 3.42-3.093 5.451-3.84a17.994 17.994 0 016.733-1.28c4.06 0 7.427.907 10.099 2.72 2.671 1.813 4.435 4.16 5.29 7.04h19.879a44.176 44.176 0 00-.214-1c-1.698-7.544-5.261-13.717-10.687-18.52zm9.66 18.52c-1.676-7.255-5.121-13.165-10.326-17.772l-.007-.006c-5.316-4.796-12.9-7.262-22.893-7.262-5.555 0-10.612.889-15.185 2.651-4.467 1.763-8.299 4.298-11.508 7.605l-.006.005-.005.006c-3.202 3.195-5.691 7.12-7.463 11.796-1.663 4.674-2.504 9.942-2.504 15.817v5.12c0 5.984.841 11.305 2.504 15.977 1.773 4.68 4.213 8.664 7.314 11.968 3.206 3.196 7.034 5.676 11.498 7.44 4.573 1.658 9.688 2.495 15.355 2.495 9.993 0 17.577-2.466 22.893-7.262 5.217-4.715 8.674-10.891 10.347-18.578h-17.914c-.963 2.866-2.656 5.299-5.062 7.284-2.602 2.239-6.347 3.276-11.065 3.276-2.376 0-4.692-.452-6.946-1.351l-.008-.004-.008-.003c-2.168-.912-4.1-2.276-5.793-4.078l-.01-.011-.01-.011c-1.7-1.923-3.042-4.278-4.039-7.043l-.004-.012c-1.007-2.903-1.498-6.271-1.498-10.087v-5.12c0-3.908.434-7.271 1.33-10.065l.004-.011.004-.011c.995-2.868 2.337-5.236 4.054-7.067 1.693-1.912 3.637-3.29 5.831-4.099a18.98 18.98 0 017.093-1.347c4.21 0 7.786.941 10.662 2.893 2.627 1.783 4.459 4.075 5.454 6.867h17.911zm35.396 55.39L980.684 631h17.092l41.724-110h-17.09l-21.19 59.171L978.7 521h-18.025l31.815 78.99zM959.192 520h20.199l21.799 57.28 20.52-57.28h19.24l-42.482 112h-19.237l12.183-32-32.222-80zm132.418-13.546V621.07h23.22V506.454h41.61V486H1050v20.454h41.61zm-40.64-.965h41.61v114.617h21.29V505.489h41.61v-18.524h-104.51v18.524zm145.16-18.524h-21.29v133.141h21.29V486.965zM1226.95 610c7.26 7.859 17.55 11.842 31.02 11.842 13.73 0 24.36-4.049 32.01-12.048 7.63-8.116 11.54-20.376 11.54-36.963v-85.866h-21.29v85.866c0 10.234-1.94 17.796-6.05 22.437-3.95 4.616-9.39 6.893-16.21 6.893-6.87 0-12.26-2.206-16.03-6.715-3.6-4.311-5.62-10.607-6.17-18.756h-21.27c1.14 14.406 5.32 25.473 12.45 33.31zm-.72.651c-7.32-8.056-11.55-19.376-12.7-33.961-.03-.32-.05-.641-.07-.965h23.22c.91 16.981 8 25.471 21.29 25.471 6.58 0 11.74-2.187 15.48-6.561 3.88-4.373 5.81-11.642 5.81-21.804V486h23.22v86.831c0 16.723-3.93 29.265-11.8 37.627-7.87 8.232-18.77 12.349-32.71 12.349-13.67 0-24.25-4.052-31.74-12.156zm181.37-35.89L1361.15 486h-32.51v135.07h23.22V514.751l8.13 17.559 46.45 88.76h32.51V486h-23.22v106.513l-8.13-17.752zm9.1-87.796v105.548l-1.85.4-8.12-17.729-46.16-88.219h-30.96v133.141h21.29V514.751l1.84-.405 8.12 17.538 46.17 88.222h30.96V486.965h-21.29zM1173.88 486v135.07h23.22V486h-23.22z" fill="#FFBCBC"/><path d="M1050 486h106.44v20.454h-41.61V621.07h-23.22V506.454H1050V486zm123.88 0h23.22v135.07h-23.22V486zm84.09 136.807c-13.67 0-24.25-4.052-31.74-12.156-7.48-8.233-11.74-19.875-12.77-34.926h23.22c.91 16.981 8 25.471 21.29 25.471 6.58 0 11.74-2.187 15.48-6.561 3.88-4.373 5.81-11.642 5.81-21.804V486h23.22v86.831c0 16.723-3.93 29.265-11.8 37.627-7.87 8.232-18.77 12.349-32.71 12.349zm102.02-90.497l-8.13-17.559V621.07h-23.22V486h32.51l46.45 88.761 8.13 17.752V486h23.22v135.07h-32.51l-46.45-88.76z" fill="#FFBCBC"/></svg>