<svg width="533" height="139" fill="none" xmlns="http://www.w3.org/2000/svg"><path d="M39.633 78.506L23.43 98.475v38.567H0V0h23.429v66.172L74.97 0h28.505L55.643 60.69l51.738 76.352H78.095L39.633 78.506zm83.321-39.351h17.767l1.757 10.963c3.384-4.176 7.549-7.309 12.495-9.397 5.076-2.219 10.673-3.328 16.791-3.328h9.762v21.144h-9.762c-8.981 0-15.619 1.958-19.915 5.873-4.165 3.916-6.247 9.201-6.247 15.858v56.774h-22.648V39.155zm112.285 99.649c-7.028 0-13.341-1.044-18.938-3.132-5.597-2.219-10.413-5.352-14.447-9.397-4.036-4.177-7.16-9.202-9.372-15.075-2.083-5.873-3.123-12.53-3.123-19.969v-6.265c0-7.44 1.04-14.095 3.123-19.969 2.212-5.873 5.336-10.833 9.372-14.879 4.034-4.176 8.85-7.309 14.447-9.397 5.597-2.219 11.91-3.328 18.938-3.328 14.187 0 25.381 4.372 33.581 13.117 8.2 8.745 12.3 21.274 12.3 37.589v7.635h-69.114c.65 8.222 2.929 14.161 6.833 17.815 3.905 3.524 9.372 5.286 16.4 5.286 6.898 0 11.91-1.174 15.034-3.524 3.253-2.479 5.401-5.351 6.443-8.614h23.428c-1.041 4.569-2.669 8.81-4.881 12.726-2.213 3.915-5.141 7.309-8.785 10.18-3.646 2.871-8.071 5.156-13.277 6.852-5.207 1.566-11.194 2.349-17.962 2.349zm0-81.442c-6.638 0-11.845 1.632-15.619 4.894-3.775 3.263-6.183 8.419-7.223 15.467h45.685c-.911-7.31-3.319-12.53-7.223-15.662-3.775-3.133-8.981-4.699-15.62-4.699zm125.591 8.222l-17.181 71.458h-27.333l-27.333-97.887h23.428l18.157 70.674 17.181-70.674h27.334l19.328 69.891 16.791-69.891h22.257l-25.381 97.887h-27.333L360.83 65.584zm126.273 73.22c-7.028 0-13.34-1.044-18.938-3.132-5.596-2.219-10.412-5.352-14.447-9.397-4.035-4.177-7.159-9.202-9.372-15.075-2.082-5.873-3.124-12.53-3.124-19.969v-6.265c0-7.44 1.042-14.095 3.124-19.969 2.213-5.873 5.337-10.833 9.372-14.879 4.035-4.176 8.851-7.309 14.447-9.397 5.598-2.219 11.91-3.328 18.938-3.328 14.188 0 25.381 4.372 33.581 13.117 8.2 8.745 12.3 21.274 12.3 37.589v7.635H463.87c.651 8.222 2.929 14.161 6.833 17.815 3.905 3.524 9.372 5.286 16.4 5.286 6.899 0 11.91-1.174 15.034-3.524 3.254-2.479 5.402-5.351 6.443-8.614h23.428c-1.04 4.569-2.668 8.81-4.881 12.726-2.212 3.915-5.14 7.309-8.785 10.18-3.645 2.871-8.07 5.156-13.277 6.852-5.206 1.566-11.193 2.349-17.962 2.349zm0-81.442c-6.638 0-11.844 1.632-15.619 4.894-3.774 3.263-6.182 8.419-7.223 15.467h45.685c-.911-7.31-3.319-12.53-7.224-15.662-3.773-3.133-8.98-4.699-15.619-4.699z" fill="#FFBCBC"/></svg>