<svg width="1037" height="146" fill="none" xmlns="http://www.w3.org/2000/svg"><path d="M25.984 38.4l-6.566-16.96V112H.199V0h28.828l24.984 60.64L78.995 0h28.507v112H88.284V21.28L81.558 38.4l-18.098 44H44.242l-18.258-44zm136.703 75.04c-12.065 0-21.514-3.413-28.347-10.24-6.727-6.827-10.09-16.373-10.09-28.64v-5.12c0-6.08.855-11.52 2.562-16.32 1.816-4.8 4.379-8.853 7.688-12.16 3.417-3.413 7.474-5.973 12.171-7.68 4.699-1.813 10.037-2.72 16.016-2.72 12.066 0 21.461 3.413 28.187 10.24 6.834 6.827 10.25 16.373 10.25 28.64v5.12c0 6.08-.907 11.52-2.723 16.32-1.707 4.8-4.27 8.907-7.687 12.32-3.309 3.307-7.367 5.867-12.172 7.68-4.697 1.707-9.982 2.56-15.855 2.56zm0-17.28c6.086 0 10.73-1.76 13.933-5.28 3.311-3.52 4.965-8.96 4.965-16.32v-5.12c0-7.253-1.708-12.64-5.125-16.16-3.309-3.627-7.9-5.44-13.773-5.44-6.086 0-10.784 1.76-14.094 5.28-3.203 3.52-4.804 8.96-4.804 16.32v5.12c0 7.253 1.655 12.693 4.964 16.32 3.418 3.52 8.062 5.28 13.934 5.28zm81.327 17.28c-4.697 0-8.968-.8-12.812-2.4-3.844-1.6-7.207-4-10.09-7.2-2.775-3.307-4.965-7.36-6.566-12.16-1.495-4.907-2.242-10.613-2.242-17.12v-5.12c0-6.4.8-12 2.402-16.8 1.602-4.8 3.791-8.853 6.566-12.16 2.883-3.307 6.246-5.76 10.09-7.36 3.844-1.707 8.062-2.56 12.652-2.56 9.93 0 17.724 3.147 23.383 9.44V0h18.578v112h-14.574l-1.762-10.72c-2.776 4.053-6.352 7.093-10.73 9.12-4.378 2.027-9.342 3.04-14.895 3.04zm5.606-17.28c5.019 0 9.183-1.707 12.492-5.12 3.31-3.52 5.072-8.64 5.285-15.36v-6.24c0-7.04-1.708-12.373-5.125-16-3.309-3.733-7.527-5.6-12.652-5.6-5.659 0-10.036 1.707-13.133 5.12-3.096 3.307-4.644 8.8-4.644 16.48v5.12c0 7.36 1.601 12.8 4.804 16.32 3.203 3.52 7.527 5.28 12.973 5.28zm89.937 17.28c-5.765 0-10.943-.853-15.535-2.56-4.59-1.813-8.541-4.373-11.851-7.68-3.309-3.413-5.872-7.52-7.687-12.32-1.708-4.8-2.563-10.24-2.563-16.32v-5.12c0-6.08.855-11.52 2.563-16.32 1.815-4.8 4.378-8.853 7.687-12.16 3.31-3.413 7.261-5.973 11.851-7.68 4.592-1.813 9.77-2.72 15.535-2.72 11.639 0 20.821 3.573 27.547 10.72 6.726 7.147 10.09 17.387 10.09 30.72v6.24h-56.695c.535 6.72 2.402 11.573 5.605 14.56 3.204 2.88 7.688 4.32 13.453 4.32 5.66 0 9.77-.96 12.332-2.88 2.67-2.027 4.432-4.373 5.285-7.04h19.219c-.854 3.733-2.188 7.2-4.004 10.4-1.815 3.2-4.217 5.973-7.207 8.32-2.989 2.347-6.619 4.213-10.89 5.6-4.27 1.28-9.182 1.92-14.735 1.92zm0-66.56c-5.445 0-9.715 1.333-12.812 4-3.096 2.667-5.071 6.88-5.926 12.64h37.477c-.747-5.973-2.723-10.24-5.926-12.8-3.096-2.56-7.367-3.84-12.813-3.84zM393.216 32h14.574l1.442 8.96a26.011 26.011 0 0110.25-7.68c4.164-1.813 8.754-2.72 13.773-2.72h8.008v17.28h-8.008c-7.367 0-12.813 1.6-16.336 4.8-3.417 3.2-5.125 7.52-5.125 12.96V112h-18.578V32zm60.84 0h14.574l1.441 8.96c5.979-6.933 14.254-10.4 24.824-10.4 9.823 0 17.457 2.933 22.902 8.8 5.553 5.76 8.328 14.507 8.328 26.24V112h-18.578V65.6c0-5.867-1.441-10.293-4.324-13.28-2.775-2.987-6.619-4.48-11.531-4.48-5.765 0-10.357 1.547-13.773 4.64-3.31 3.093-5.072 7.2-5.285 12.32V112h-18.578V32zm92.92-32h19.219v95.04h49.648V112h-68.867V0zm112.89 113.44c-5.765 0-10.943-.853-15.535-2.56-4.59-1.813-8.541-4.373-11.851-7.68-3.309-3.413-5.872-7.52-7.687-12.32-1.708-4.8-2.563-10.24-2.563-16.32v-5.12c0-6.08.855-11.52 2.563-16.32 1.815-4.8 4.378-8.853 7.687-12.16 3.31-3.413 7.261-5.973 11.851-7.68 4.592-1.813 9.77-2.72 15.535-2.72 11.639 0 20.82 3.573 27.547 10.72 6.726 7.147 10.09 17.387 10.09 30.72v6.24h-56.695c.534 6.72 2.402 11.573 5.605 14.56 3.203 2.88 7.688 4.32 13.453 4.32 5.66 0 9.77-.96 12.332-2.88 2.67-2.027 4.431-4.373 5.285-7.04h19.219c-.854 3.733-2.188 7.2-4.004 10.4-1.815 3.2-4.217 5.973-7.207 8.32-2.989 2.347-6.619 4.213-10.89 5.6-4.271 1.28-9.182 1.92-14.735 1.92zm0-66.56c-5.445 0-9.715 1.333-12.812 4-3.096 2.667-5.071 6.88-5.926 12.64h37.476c-.746-5.973-2.722-10.24-5.925-12.8-3.096-2.56-7.367-3.84-12.813-3.84zm80.565 63.36c-4.699 0-8.969-.747-12.812-2.24-3.844-1.6-7.207-3.947-10.09-7.04-2.777-3.093-4.965-6.933-6.566-11.52-1.496-4.693-2.243-10.187-2.243-16.48v-5.12c0-5.973.801-11.253 2.403-15.84 1.601-4.693 3.789-8.587 6.566-11.68 2.883-3.2 6.246-5.6 10.09-7.2 3.844-1.707 8.061-2.56 12.652-2.56 11.317 0 19.859 4 25.625 12L767.817 32h14.574v80c0 11.093-2.882 19.413-8.648 24.96-5.765 5.653-14.734 8.48-26.906 8.48-5.659 0-10.57-.587-14.734-1.76-4.058-1.173-7.474-2.88-10.25-5.12-2.777-2.24-4.912-5.013-6.406-8.32-1.388-3.2-2.296-6.88-2.723-11.04h18.578c.854 3.733 2.403 6.56 4.645 8.48 2.242 1.92 5.871 2.88 10.89 2.88 5.766 0 10.036-1.493 12.813-4.48 2.775-2.88 4.164-7.573 4.164-14.08v-11.2c-2.883 3.093-6.301 5.44-10.25 7.04-3.951 1.6-8.328 2.4-13.133 2.4zm5.605-17.28c5.125 0 9.342-1.76 12.653-5.28 3.416-3.52 5.125-8.427 5.125-14.72v-5.12c0-6.293-1.709-11.2-5.125-14.72-3.311-3.52-7.528-5.28-12.653-5.28-5.659 0-10.036 1.653-13.132 4.96-3.097 3.2-4.645 8.213-4.645 15.04v5.12c0 6.613 1.602 11.627 4.805 15.04 3.203 3.307 7.527 4.96 12.972 4.96zm77.927 20.48c-8.649 0-15.215-2.133-19.699-6.4-4.485-4.267-6.727-10.187-6.727-17.76 0-4.16.641-7.893 1.922-11.2 1.388-3.413 3.523-6.24 6.406-8.48 2.99-2.347 6.78-4.107 11.371-5.28 4.698-1.28 10.41-1.92 17.137-1.92h13.453v-4.8c0-3.84-1.068-6.72-3.204-8.64-2.028-2.027-5.445-3.04-10.249-3.04-4.485 0-7.741.853-9.77 2.56s-3.256 3.947-3.683 6.72h-20.18c.428-7.147 3.31-13.013 8.648-17.6 5.446-4.693 13.774-7.04 24.985-7.04 10.677 0 18.685 2.453 24.023 7.36 5.338 4.907 8.008 11.467 8.008 19.68V112h-14.575l-1.921-11.04c-2.776 4.053-6.407 7.147-10.891 9.28-4.377 2.133-9.396 3.2-15.054 3.2zm3.203-15.36c2.99 0 5.712-.48 8.168-1.44 2.562-1.067 4.751-2.453 6.566-4.16a21.833 21.833 0 004.324-6.08c1.068-2.24 1.602-4.64 1.602-7.2v-2.4h-13.453c-6.407 0-10.891 1.067-13.453 3.2-2.563 2.133-3.844 5.013-3.844 8.64 0 2.88.854 5.173 2.562 6.88 1.815 1.707 4.325 2.56 7.528 2.56zm92.013 15.36c-5.765 0-10.997-.853-15.695-2.56-4.591-1.813-8.541-4.373-11.851-7.68-3.203-3.413-5.713-7.52-7.527-12.32-1.709-4.8-2.563-10.24-2.563-16.32v-5.12c0-5.973.854-11.36 2.563-16.16 1.814-4.8 4.377-8.853 7.687-12.16 3.31-3.413 7.26-6.027 11.851-7.84 4.698-1.813 9.877-2.72 15.535-2.72 10.143 0 17.991 2.507 23.543 7.52 5.659 5.013 9.289 11.52 10.891 19.52h-19.86c-.853-2.88-2.615-5.227-5.285-7.04-2.669-1.813-6.032-2.72-10.089-2.72-2.35 0-4.592.427-6.727 1.28-2.029.747-3.844 2.027-5.445 3.84-1.602 1.707-2.883 3.947-3.844 6.72-.854 2.667-1.281 5.92-1.281 9.76v5.12c0 3.733.48 6.987 1.441 9.76.961 2.667 2.242 4.907 3.844 6.72 1.602 1.707 3.416 2.987 5.445 3.84a17.547 17.547 0 006.567 1.28c4.591 0 8.06-1.013 10.41-3.04 2.455-2.027 4.111-4.533 4.964-7.52h19.86c-1.602 8.427-5.232 15.2-10.891 20.32-5.552 5.013-13.4 7.52-23.543 7.52zM986.66 112l-32.191-80h20.18l21.781 57.28 20.5-57.28h19.22l-42.443 112h-19.218l12.171-32z" fill="#FFBCBC"/></svg>