<svg width="1037" height="146" fill="none" xmlns="http://www.w3.org/2000/svg"><path fill-rule="evenodd" clip-rule="evenodd" d="M28.856 0H0v112h19.237V21.44L25.81 38.4l18.275 44h19.237l18.115-44 6.733-17.12V112h19.237V0H78.872L53.864 60.64 28.856 0zm50.687 1l-25.68 62.267L28.186 1H1.002v110h17.233V21.44l1.937-.36 6.568 16.948L44.754 81.4h17.897l17.853-43.365 6.733-17.12 1.935.365V111h17.233V1H79.543zm67.071 32.28c-4.702 1.707-8.763 4.267-12.184 7.68-3.312 3.307-5.877 7.36-7.695 12.16-1.709 4.8-2.565 10.24-2.565 16.32v5.12c0 12.267 3.367 21.813 10.1 28.64 6.84 6.827 16.298 10.24 28.375 10.24 5.878 0 11.168-.853 15.87-2.56 4.81-1.813 8.871-4.373 12.184-7.68 3.42-3.413 5.985-7.52 7.695-12.32 1.817-4.8 2.725-10.24 2.725-16.32v-5.12c0-12.267-3.42-21.813-10.26-28.64-6.733-6.827-16.137-10.24-28.214-10.24-5.985 0-11.328.907-16.031 2.72zm31.555 76.662c4.686-1.768 8.62-4.254 11.821-7.449 3.31-3.303 5.797-7.28 7.46-11.948l.003-.01.004-.008c1.766-4.669 2.66-9.986 2.66-15.967v-5.12c0-12.077-3.362-21.341-9.966-27.933l-.005-.005c-6.5-6.59-15.619-9.942-27.501-9.942-5.884 0-11.102.891-15.67 2.653l-.01.003-.009.004c-4.569 1.658-8.504 4.14-11.817 7.447-3.201 3.195-5.691 7.121-7.463 11.797-1.662 4.672-2.504 9.993-2.504 15.976v5.12c0 12.08 3.311 21.345 9.809 27.936 6.608 6.593 15.785 9.944 27.664 9.944 5.779 0 10.949-.839 15.524-2.498zM148.537 53.12c3.314-3.52 8.016-5.28 14.108-5.28 5.878 0 10.474 1.813 13.786 5.44 3.421 3.52 5.13 8.907 5.13 16.16v5.12c0 7.36-1.656 12.8-4.969 16.32-3.207 3.52-7.856 5.28-13.947 5.28-5.878 0-10.527-1.76-13.947-5.28-3.313-3.627-4.97-9.067-4.97-16.32v-5.12c0-7.36 1.603-12.8 4.809-16.32zm28.791 38.439c-3.446 3.779-8.396 5.601-14.683 5.601-6.092 0-11.022-1.832-14.667-5.584l-.01-.01-.011-.012c-3.545-3.882-5.231-9.608-5.231-16.994v-5.12c0-7.478 1.625-13.21 5.07-16.993l.006-.006.005-.006c3.55-3.77 8.546-5.595 14.838-5.595 6.093 0 10.978 1.888 14.517 5.755 3.664 3.78 5.401 9.462 5.401 16.845v5.12c0 7.48-1.679 13.217-5.235 16.999zm89.126-52.617c-5.57-5.588-13.037-8.382-22.403-8.382-4.596 0-8.817.853-12.665 2.56-3.847 1.6-7.214 4.053-10.099 7.36-2.779 3.307-4.97 7.36-6.573 12.16-1.603 4.8-2.405 10.4-2.405 16.8v5.12c0 6.507.749 12.213 2.245 17.12 1.603 4.8 3.794 8.853 6.572 12.16 2.886 3.2 6.253 5.6 10.1 7.2 3.847 1.6 8.123 2.4 12.825 2.4 5.557 0 10.527-1.013 14.908-3.04 3.959-1.831 7.263-4.489 9.915-7.975.282-.372.558-.754.826-1.145l1.764 10.72h14.588V0h-18.596v40a28.77 28.77 0 00-1.002-1.058zM268.458 1v41.61l-1.748-1.942c-5.44-6.045-12.951-9.108-22.659-9.108-4.469 0-8.55.829-12.258 2.474l-.011.005-.01.004c-3.695 1.537-6.935 3.893-9.724 7.087-2.682 3.194-4.815 7.129-6.383 11.826-1.562 4.675-2.354 10.164-2.354 16.484v5.12c0 6.428.739 12.028 2.198 16.816 1.567 4.69 3.697 8.618 6.374 11.808 2.787 3.087 6.029 5.394 9.729 6.933 3.71 1.543 7.852 2.323 12.439 2.323 5.433 0 10.255-.99 14.488-2.947 4.214-1.95 7.655-4.87 10.335-8.778l1.41-2.058 2.03 12.343h12.736V1h-16.592zm-5.567 90.73l-.006.006c-3.513 3.62-7.946 5.424-13.224 5.424-5.687 0-10.301-1.848-13.726-5.607-3.445-3.782-5.07-9.515-5.07-16.993v-5.12c0-7.765 1.558-13.572 4.914-17.157 3.331-3.665 8.008-5.443 13.882-5.443 5.403 0 9.898 1.98 13.405 5.926 3.648 3.876 5.392 9.492 5.392 16.674v6.256l-.001.016c-.219 6.868-2.025 12.256-5.561 16.013l-.005.005zm-.565-38.29c-3.313-3.733-7.535-5.6-12.665-5.6-5.663 0-10.046 1.707-13.145 5.12-3.099 3.307-4.649 8.8-4.649 16.48v5.12c0 7.36 1.603 12.8 4.809 16.32 3.207 3.52 7.535 5.28 12.985 5.28 5.023 0 9.191-1.707 12.505-5.12 3.313-3.52 5.076-8.64 5.29-15.36v-6.24c0-7.04-1.71-12.373-5.13-16zm49.947-12.48c-3.312 3.307-5.877 7.36-7.695 12.16-1.709 4.8-2.565 10.24-2.565 16.32v5.12c0 6.08.856 11.52 2.565 16.32 1.818 4.8 4.383 8.907 7.695 12.32 3.314 3.307 7.268 5.867 11.863 7.68 4.596 1.707 9.779 2.56 15.55 2.56 5.558 0 10.474-.64 14.749-1.92 4.275-1.387 7.909-3.253 10.901-5.6 2.992-2.347 5.397-5.12 7.213-8.32 1.655-2.912 2.909-6.046 3.767-9.4.084-.331.165-.665.241-1H357.32c-.854 2.667-2.618 5.013-5.29 7.04-2.565 1.92-6.679 2.88-12.344 2.88-5.771 0-10.26-1.44-13.466-4.32-3.045-2.836-4.884-7.356-5.519-13.56a38.04 38.04 0 01-.092-1h56.75V72c0-13.333-3.367-23.573-10.1-30.72-6.733-7.147-15.923-10.72-27.573-10.72-5.771 0-10.954.907-15.55 2.72-4.595 1.707-8.549 4.267-11.863 7.68zm64.084 36.28V72c0-13.172-3.324-23.132-9.827-30.035-6.509-6.909-15.416-10.405-26.844-10.405-5.666 0-10.721.89-15.181 2.65l-.01.004-.009.003c-4.46 1.657-8.287 4.136-11.493 7.439l-.005.005-.006.006c-3.201 3.195-5.691 7.121-7.463 11.797-1.662 4.672-2.504 9.993-2.504 15.976v5.12c0 5.983.842 11.304 2.504 15.976 1.772 4.675 4.262 8.657 7.468 11.961 3.207 3.201 7.039 5.685 11.508 7.449 4.463 1.656 9.523 2.494 15.191 2.494 5.479 0 10.291-.631 14.45-1.875 4.178-1.356 7.699-3.171 10.58-5.431 2.894-2.269 5.211-4.944 6.962-8.027a36.924 36.924 0 003.603-8.907h-17.25c-.999 2.606-2.818 4.882-5.395 6.836l-.005.004c-2.827 2.117-7.211 3.08-12.945 3.08-5.933 0-10.691-1.482-14.136-4.577l-.006-.006-.007-.006c-3.467-3.229-5.383-8.373-5.927-15.212l-.085-1.079h56.832zm-56.588-12.72l.17-1.146c.876-5.898 2.923-10.373 6.268-13.251 3.335-2.87 7.869-4.243 13.479-4.243 5.598 0 10.125 1.314 13.458 4.064 3.484 2.786 5.528 7.344 6.293 13.452l.141 1.124h-39.809zm32.742-13.8c-3.099-2.56-7.374-3.84-12.825-3.84-5.45 0-9.725 1.333-12.825 4-2.916 2.51-4.839 6.39-5.769 11.64-.058.328-.112.661-.162 1h37.512a32.58 32.58 0 00-.139-1c-.837-5.452-2.767-9.385-5.792-11.8zM407.984 32h-14.588v80h18.596V65.6c0-5.44 1.71-9.76 5.13-12.96 3.526-3.2 8.977-4.8 16.351-4.8h8.015V30.56h-8.015c-5.023 0-9.619.907-13.786 2.72-3.655 1.536-6.79 3.763-9.406 6.68a27.55 27.55 0 00-.854 1L407.984 32zm32.503-.44h-7.014c-4.899 0-9.357.884-13.386 2.637l-.011.005c-3.91 1.643-7.197 4.103-9.871 7.389l-1.412 1.734L407.13 33h-12.732v78h16.592V65.6c0-5.667 1.791-10.27 5.447-13.69l.005-.005.006-.005c3.789-3.438 9.534-5.06 17.025-5.06h7.014V31.56zm28.396.44h-14.588v80h18.596V64.8c.213-5.12 1.977-9.227 5.29-12.32 3.42-3.093 8.016-4.64 13.787-4.64 4.915 0 8.763 1.493 11.542 4.48 2.886 2.987 4.328 7.413 4.328 13.28V112h18.596V65.6c0-11.733-2.779-20.48-8.336-26.24-5.45-5.867-13.092-8.8-22.924-8.8-10.082 0-18.078 3.148-23.987 9.444-.293.31-.579.63-.861.956L468.883 32zm56.549 79V65.6c0-11.594-2.747-20.044-8.056-25.546l-.006-.007-.007-.007c-5.219-5.618-12.567-8.48-22.189-8.48-10.339 0-18.324 3.375-24.089 10.053l-1.406 1.629L468.03 33h-12.733v78h16.592V64.78l.001-.022c.223-5.344 2.076-9.712 5.607-13.008l.005-.006.006-.005c3.647-3.299 8.504-4.899 14.46-4.899 5.129 0 9.264 1.566 12.27 4.792 3.124 3.239 4.602 7.954 4.602 13.968V111h16.592zm41.111-15.96V0h-19.237v112h68.933V95.04h-49.696zm48.694 1h-49.696V1h-17.234v110h66.93V96.04zm17.655-55.08c-3.313 3.307-5.878 7.36-7.695 12.16-1.709 4.8-2.565 10.24-2.565 16.32v5.12c0 6.08.856 11.52 2.565 16.32 1.817 4.8 4.382 8.907 7.695 12.32 3.313 3.307 7.268 5.867 11.863 7.68 4.595 1.707 9.778 2.56 15.55 2.56 5.557 0 10.474-.64 14.748-1.92 4.275-1.387 7.909-3.253 10.901-5.6 2.993-2.347 5.397-5.12 7.214-8.32a37.972 37.972 0 003.766-9.4c.084-.331.165-.665.242-1h-19.238c-.854 2.667-2.618 5.013-5.29 7.04-2.565 1.92-6.679 2.88-12.343 2.88-5.772 0-10.26-1.44-13.466-4.32-3.045-2.836-4.885-7.356-5.52-13.56a42.912 42.912 0 01-.091-1h56.749V72c0-13.333-3.366-23.573-10.099-30.72-6.733-7.147-15.924-10.72-27.573-10.72-5.772 0-10.955.907-15.55 2.72-4.595 1.707-8.55 4.267-11.863 7.68zm64.083 36.28V72c0-13.172-3.323-23.132-9.827-30.035-6.508-6.909-15.415-10.405-26.843-10.405-5.666 0-10.721.89-15.182 2.65l-.01.004-.009.003c-4.459 1.657-8.287 4.136-11.493 7.439l-.005.005-.006.006c-3.2 3.195-5.691 7.12-7.461 11.796-1.664 4.672-2.505 9.993-2.505 15.977v5.12c0 5.984.841 11.305 2.505 15.977 1.77 4.675 4.261 8.657 7.466 11.961 3.207 3.2 7.04 5.684 11.508 7.448 4.464 1.656 9.524 2.494 15.192 2.494 5.478 0 10.29-.631 14.449-1.875 4.178-1.356 7.699-3.171 10.581-5.431 2.893-2.269 5.211-4.944 6.961-8.027a36.883 36.883 0 003.603-8.907h-17.25c-.999 2.606-2.818 4.882-5.395 6.836l-.005.004c-2.827 2.117-7.21 3.08-12.944 3.08-5.934 0-10.692-1.482-14.137-4.577l-.006-.006-.007-.006c-3.466-3.229-5.382-8.373-5.926-15.212l-.085-1.079h56.831zm-56.588-12.72l.17-1.146c.876-5.898 2.923-10.373 6.269-13.251 3.334-2.87 7.869-4.243 13.479-4.243 5.597 0 10.124 1.314 13.457 4.064 3.484 2.786 5.528 7.344 6.294 13.452l.14 1.124h-39.809zm32.742-13.8c-3.099-2.56-7.374-3.84-12.824-3.84-5.451 0-9.725 1.333-12.825 4-2.917 2.51-4.84 6.39-5.769 11.64-.058.328-.113.661-.163 1h37.513a29.74 29.74 0 00-.14-1c-.836-5.452-2.767-9.385-5.792-11.8zm92.635-9.261c-5.749-7.266-14.021-10.899-24.817-10.899-4.596 0-8.818.853-12.664 2.56-3.849 1.6-7.215 4-10.101 7.2-2.778 3.093-4.969 6.987-6.573 11.68-1.602 4.587-2.404 9.867-2.404 15.84v5.12c0 6.293.748 11.787 2.245 16.48 1.602 4.587 3.793 8.427 6.573 11.52 2.885 3.093 6.252 5.44 10.098 7.04 3.848 1.493 8.123 2.24 12.826 2.24 4.809 0 9.191-.8 13.145-2.4 3.506-1.419 6.592-3.424 9.258-6.017.341-.331.675-.672 1.002-1.023V112c0 6.507-1.39 11.2-4.169 14.08-2.778 2.987-7.053 4.48-12.825 4.48-5.022 0-8.656-.96-10.901-2.88-2.244-1.92-3.793-4.747-4.649-8.48h-18.595c.035.336.073.67.113 1 .465 3.752 1.335 7.099 2.612 10.04 1.497 3.307 3.634 6.08 6.412 8.32 2.78 2.24 6.199 3.947 10.261 5.12 4.167 1.173 9.083 1.76 14.747 1.76 12.185 0 21.161-2.827 26.932-8.48 5.771-5.547 8.658-13.867 8.658-24.96V32H768.36l-1.764 10.56a31.364 31.364 0 00-.832-1.101zM769.208 33l-2.019 12.093-1.406-1.949c-5.554-7.697-13.776-11.584-24.836-11.584-4.469 0-8.55.829-12.258 2.474l-.011.005-.011.004c-3.705 1.54-6.949 3.852-9.738 6.944-2.674 2.976-4.803 6.745-6.371 11.336l-.002.006c-1.559 4.46-2.349 9.625-2.349 15.511v5.12c0 6.212.738 11.594 2.193 16.164 1.565 4.473 3.691 8.187 6.362 11.162 2.786 2.984 6.029 5.243 9.734 6.786 3.714 1.44 7.86 2.168 12.451 2.168 4.696 0 8.948-.781 12.769-2.327 3.819-1.545 7.117-3.809 9.903-6.794l1.735-1.86V112c0 6.607-1.404 11.613-4.443 14.768-3.035 3.258-7.624 4.792-13.553 4.792-5.107 0-9.036-.969-11.552-3.121-2.284-1.954-3.86-4.728-4.783-8.239h-16.687c.458 3.62 1.301 6.828 2.519 9.634 1.432 3.164 3.472 5.81 6.125 7.948 2.658 2.142 5.952 3.794 9.907 4.937 4.056 1.141 8.875 1.721 14.471 1.721 12.053 0 20.723-2.799 26.231-8.194l.007-.006c5.509-5.295 8.35-13.311 8.35-24.24V33h-12.738zm-35.636 55c-3.206-3.413-4.809-8.427-4.809-15.04v-5.12c0-6.827 1.55-11.84 4.648-15.04 3.1-3.307 7.482-4.96 13.146-4.96 5.13 0 9.352 1.76 12.665 5.28 3.42 3.52 5.13 8.427 5.13 14.72v5.12c0 6.293-1.71 11.2-5.13 14.72-3.313 3.52-7.535 5.28-12.665 5.28-5.451 0-9.779-1.653-12.985-4.96zm-.887-35.889c-3.351 3.466-4.924 8.782-4.924 15.729v5.12c0 6.762 1.64 12.06 5.08 15.724l.005.006.006.005c3.429 3.537 8.037 5.265 13.705 5.265 5.385 0 9.875-1.859 13.389-5.589 3.645-3.755 5.408-8.937 5.408-15.411v-5.12c0-6.474-1.763-11.656-5.408-15.411-3.514-3.73-8.004-5.589-13.389-5.589-5.864 0-10.539 1.718-13.872 5.271zM806.444 69.6c-2.885 2.24-5.023 5.067-6.412 8.48-1.282 3.307-1.924 7.04-1.924 11.2 0 7.573 2.245 13.493 6.733 17.76 4.489 4.267 11.062 6.4 19.718 6.4 5.664 0 10.687-1.067 15.069-3.2 4.06-1.93 7.421-4.645 10.082-8.145.28-.37.554-.748.819-1.135l1.924 11.04h14.588V57.6c0-8.213-2.672-14.773-8.015-19.68-5.345-4.907-13.36-7.36-24.047-7.36-11.221 0-19.557 2.347-25.008 7.04-5.093 4.37-7.952 9.904-8.58 16.6-.032.33-.057.664-.077 1h20.199c.427-2.773 1.657-5.013 3.688-6.72 2.029-1.707 5.29-2.56 9.778-2.56 4.81 0 8.229 1.013 10.26 3.04 2.137 1.92 3.206 4.8 3.206 8.64v4.8h-13.466c-6.733 0-12.451.64-17.153 1.92-4.596 1.173-8.39 2.933-11.382 5.28zm39.485-21.366c2.399 2.168 3.518 5.354 3.518 9.366v5.8h-14.468c-6.675 0-12.298.635-16.889 1.885l-.008.002-.007.002c-4.494 1.147-8.152 2.855-11.011 5.097l-.004.003c-2.744 2.13-4.773 4.811-6.097 8.06-1.229 3.171-1.853 6.777-1.853 10.831 0 7.365 2.175 12.999 6.422 17.036 4.239 4.029 10.525 6.124 19.027 6.124 5.537 0 10.405-1.042 14.63-3.099l.009-.004c4.33-2.058 7.827-5.036 10.504-8.942l1.392-2.03L853.296 111h12.743V57.6c0-7.975-2.583-14.253-7.692-18.944-5.087-4.672-12.815-7.096-23.368-7.096-11.109 0-19.163 2.328-24.354 6.797l-.001.001c-4.868 4.179-7.605 9.441-8.226 15.842h18.282c.571-2.617 1.861-4.792 3.875-6.485 2.3-1.933 5.849-2.795 10.424-2.795 4.893 0 8.637 1.02 10.95 3.314zm-9.613 49.333l-.01.004c-2.589 1.011-5.44 1.509-8.54 1.509-3.387 0-6.17-.905-8.222-2.832l-.011-.01-.01-.01c-1.934-1.93-2.859-4.498-2.859-7.588 0-3.894 1.393-7.067 4.208-9.408 2.849-2.37 7.647-3.432 14.107-3.432h14.468v3.4c0 2.704-.566 5.251-1.7 7.63a22.834 22.834 0 01-4.525 6.357l-.011.01-.011.011c-1.914 1.798-4.21 3.247-6.874 4.355l-.01.004zm6.198-5.087c-1.818 1.707-4.008 3.093-6.573 4.16-2.459.96-5.184 1.44-8.175 1.44-3.207 0-5.719-.853-7.535-2.56-1.71-1.707-2.565-4-2.565-6.88 0-3.627 1.282-6.507 3.847-8.64 2.565-2.133 7.054-3.2 13.466-3.2h13.466v2.4c0 2.56-.535 4.96-1.603 7.2-1.069 2.24-2.512 4.267-4.328 6.08zm100.92-54.4c-5.558-5.013-13.413-7.52-23.566-7.52-5.665 0-10.848.907-15.55 2.72-4.596 1.813-8.55 4.427-11.863 7.84-3.313 3.307-5.878 7.36-7.695 12.16-1.71 4.8-2.565 10.187-2.565 16.16v5.12c0 6.08.855 11.52 2.565 16.32 1.817 4.8 4.329 8.907 7.535 12.32 3.312 3.307 7.267 5.867 11.863 7.68 4.702 1.707 9.939 2.56 15.71 2.56 10.153 0 18.008-2.507 23.566-7.52 5.438-4.916 9.004-11.356 10.699-19.32.07-.33.138-.664.202-1h-19.879c-.855 2.987-2.512 5.493-4.969 7.52-2.352 2.027-5.826 3.04-10.42 3.04-2.245 0-4.436-.427-6.573-1.28-2.031-.853-3.848-2.133-5.451-3.84-1.603-1.813-2.885-4.053-3.847-6.72-.962-2.773-1.443-6.027-1.443-9.76v-5.12c0-3.84.427-7.093 1.283-9.76.961-2.773 2.244-5.013 3.847-6.72 1.603-1.813 3.42-3.093 5.451-3.84a17.988 17.988 0 016.733-1.28c4.06 0 7.427.907 10.099 2.72 2.671 1.813 4.435 4.16 5.29 7.04h19.879c-.068-.336-.139-.67-.214-1-1.698-7.544-5.261-13.717-10.687-18.52zm9.66 18.52c-1.676-7.255-5.121-13.165-10.326-17.772l-.007-.006c-5.316-4.796-12.9-7.262-22.893-7.262-5.555 0-10.612.889-15.185 2.651-4.467 1.764-8.299 4.298-11.508 7.605l-.006.005-.005.006c-3.202 3.195-5.691 7.12-7.463 11.796-1.663 4.674-2.504 9.942-2.504 15.817v5.12c0 5.984.841 11.305 2.504 15.977 1.773 4.68 4.213 8.664 7.314 11.968 3.206 3.196 7.034 5.676 11.498 7.44 4.573 1.658 9.688 2.495 15.355 2.495 9.993 0 17.577-2.466 22.893-7.262 5.217-4.715 8.674-10.891 10.347-18.578h-17.914c-.963 2.866-2.656 5.299-5.062 7.285-2.602 2.238-6.347 3.275-11.065 3.275-2.376 0-4.692-.452-6.946-1.352l-.008-.003-.008-.003c-2.168-.912-4.1-2.276-5.793-4.078l-.01-.011-.01-.011c-1.7-1.923-3.042-4.278-4.039-7.043l-.004-.012c-1.007-2.903-1.498-6.271-1.498-10.087v-5.12c0-3.908.434-7.27 1.33-10.065l.004-.011.004-.011c.995-2.868 2.337-5.236 4.054-7.067 1.693-1.912 3.637-3.29 5.831-4.1a18.995 18.995 0 017.093-1.346c4.21 0 7.786.941 10.662 2.893 2.627 1.783 4.459 4.075 5.454 6.867h17.911zm35.396 55.39L976.684 143h17.092L1035.5 33h-17.09l-21.189 59.17L974.7 33h-18.025l31.815 78.99zM955.192 32h20.199l21.802 57.28L1017.71 32h19.24l-42.482 112h-19.237l12.183-32-32.222-80z" fill="#FFBCBC"/></svg>