<svg width="389" height="137" fill="none" xmlns="http://www.w3.org/2000/svg"><path d="M0 0h106.443v20.453h-41.61V135.07H41.61V20.453H0V0zm123.876 0H147.1v135.07h-23.224V0zm84.096 136.807c-13.676 0-24.257-4.052-31.74-12.156-7.482-8.233-11.74-19.875-12.773-34.926h23.224c.903 16.981 8 25.471 21.289 25.471 6.58 0 11.74-2.187 15.482-6.561 3.871-4.373 5.806-11.642 5.806-21.804V0h23.224v86.831c0 16.723-3.935 29.265-11.805 37.627-7.87 8.232-18.773 12.349-32.707 12.349zM309.993 46.31l-8.128-17.56v106.32h-23.224V0h32.514l46.447 88.76 8.129 17.753V0h23.224v135.07h-32.514l-46.448-88.76z" fill="#FFBCBC"/></svg>